<?xml version="1.0" encoding="utf-8"?>
<!-- Generator: Adobe Illustrator 22.0.0, SVG Export Plug-In . SVG Version: 6.00 Build 0)  -->
<svg version="1.1" id="Logo" xmlns="http://www.w3.org/2000/svg" xmlns:xlink="http://www.w3.org/1999/xlink" x="0px" y="0px"
	 viewBox="0 0 9.5 7.8" style="enable-background:new 0 0 9.5 7.8;" xml:space="preserve">
<style type="text/css">
	.st0{fill:#FBB900;}
	.st1{fill:#FFF6D3;}
</style>
<g id="Castle">
	<polygon class="st0" points="2.9,1.5 3.5,1.5 3.2,2.6 2.9,2.8 3.2,6.6 1,6.6 1.4,2.8 0.9,2.6 0.7,1.5 1.4,1.5 1.4,1.8 1.9,1.8 
		1.9,1.5 2.3,1.5 2.3,1.8 2.9,1.8 	"/>
	<polygon class="st0" points="8.5,1.5 9.1,1.5 8.8,2.6 8.5,2.8 8.8,6.6 6.6,6.6 7,2.8 6.5,2.6 6.3,1.5 7,1.5 7,1.8 7.5,1.8 7.5,1.5 
		7.9,1.5 7.9,1.8 8.5,1.8 	"/>
	<polygon class="st0" points="5.2,3 5.6,3 5.6,3.2 6.2,3.2 6.2,3 6.6,3 6.3,6.6 3.6,6.6 3.3,3 3.7,3 3.7,3.2 4.3,3.2 4.3,3 4.7,3 
		4.7,3.2 5.2,3.2 	"/>
	<polygon class="st0" points="5.6,-0.1 6.2,-0.1 6,1 5.7,1.2 6,2.6 3.8,2.6 4.1,1.2 3.7,1 3.4,-0.1 4.1,-0.1 4.1,0.2 4.7,0.2 
		4.7,-0.1 5.1,-0.1 5.1,0.2 5.6,0.2 	"/>
	
		<rect x="4.7" y="1.2" transform="matrix(1 -5.304758e-03 5.304758e-03 1 -9.127360e-03 2.582380e-02)" class="st1" width="0.4" height="1"/>
	<rect x="4.7" y="3.7" class="st1" width="0.4" height="0.6"/>
	<path class="st1" d="M4.1,5.3c0-0.4,0.4-0.7,0.8-0.7l0,0c0.5,0,0.8,0.3,0.8,0.7v1H4.1L4.1,5.3"/>
	<rect x="1.9" y="2.9" class="st1" width="0.4" height="1"/>
	<rect x="7.5" y="2.9" class="st1" width="0.4" height="1"/>
	<rect x="1" y="6.9" class="st0" width="8" height="0.2"/>
</g>
</svg>
