<svg height="511pt" viewBox="0 -51 511.99993 511" width="511pt" xmlns="http://www.w3.org/2000/svg"><path d="m146.53125 83.382812c6.988281-24.902343 22.484375-46.742187 43.894531-61.5625 8.027344-5.554687 19.128907-2.539062 23.285157 6.296876.046874.09375.09375.191406.136718.285156 3.269532 6.9375 1.125 15.285156-5.183594 19.644531-12.78125 8.828125-22.609374 21.15625-28.402343 35.34375" fill="#e87425"/><path d="m302.886719 180.09375c0 3.40625-.070313 6.84375-.21875 10.324219-1.289063 30.882812-8.292969 64.367187-19.605469 95.707031-12.535156 34.714844-30.371094 66.785156-51.648438 89.71875 0 0 0 .007812-.007812.007812-19.996094 21.566407-43.03125 35.050782-67.558594 35.050782-74.003906 0-134.503906-122.785156-138.796875-219.933594-.167969-3.664062-.25-7.292969-.25-10.875 0-6.636719.28125-13.191406.832031-19.640625l276.378907-.488281c.585937 6.605468.875 13.324218.875 20.128906zm0 0" fill="#ffc73b"/><path d="m231.414062 375.84375c23.984376-35.039062 6.972657-88.089844-11.679687-106.730469l63.328125 17.011719c-12.535156 34.71875-30.371094 66.785156-51.648438 89.71875zm0 0" fill="#efb025"/><path d="m302.015625 159.960938-276.378906.5c-.558594 6.445312-.835938 12.996093-.835938 19.632812 0 98.585938 62.253907 230.808594 139.046875 230.808594-34.476562 0-63.722656-84.957032-73.972656-169.449219-2.761719-22.765625 15.398438-42.578125 38.320312-41.890625.140626.003906.285157.011719.425782.015625 54.929687 1.636719 109.953125-.632813 164.640625-6.824219 3.300781-.375 6.453125-1.171875 9.410156-2.332031.148437-3.480469.21875-6.921875.21875-10.328125.003906-6.808594-.292969-13.523438-.875-20.132812zm0 0" fill="#efb025"/><path d="m326.203125 125.28125c0 9.4375-3.546875 18.09375-9.445313 24.652344-5.894531 6.570312-14.125 11.042968-23.496093 12.105468-54.6875 6.195313-109.710938 8.460938-164.640625 6.824219-31.953125-.949219-63.871094-3.21875-95.679688-6.824219-18.738281-2.121093-32.941406-17.894531-32.941406-36.757812 0-9.433594 3.546875-18.089844 9.445312-24.660156 5.894532-6.566406 14.125-11.050782 23.496094-12.105469 32.644532-3.695313 65.40625-5.988281 98.191406-6.898437h.027344c54.085938-1.496094 108.257813.804687 162.101563 6.898437 18.738281 2.121094 32.941406 17.90625 32.941406 36.765625zm0 0" fill="#ff903e"/><path d="m128.621094 168.863281c-31.953125-.949219-63.871094-3.21875-95.679688-6.824219-18.738281-2.121093-32.941406-17.894531-32.941406-36.757812 0-9.433594 3.546875-18.089844 9.445312-24.660156 5.894532-6.566406 14.125-11.050782 23.496094-12.105469 32.644532-3.695313 65.40625-5.988281 98.191406-6.898437-35.730468 1.582031-66.765624 75.328124-2.511718 87.246093zm0 0" fill="#e87425"/><path d="m503.972656 216.546875-47.863281 69.582031c-9.019531 13.105469-20.441406 24.152344-33.535156 32.640625-6.351563 4.121094-13.097657 7.644531-20.140625 10.507813-7.476563 3.042968-15.285156 5.335937-23.332032 6.820312-31.277343 5.785156-63.574218-1.09375-89.78125-19.121094l-69.582031-47.863281c-14.824219-10.199219-21.738281-27.621093-19.25-44.296875.988281-6.636718 3.472657-13.152344 7.527344-19.058594 14.265625-20.738281 42.632813-25.980468 63.363281-11.722656l35.417969 24.371094c2 1.367188 4.199219 2.203125 6.449219 2.539062 5.640625.839844 11.53125-1.492187 14.984375-6.503906 4.816406-7.019531 3.046875-16.613281-3.964844-21.429687l-90.417969-62.195313c-11.195312-7.699218-16.402344-20.847656-14.523437-33.4375.746093-5.015625 2.613281-9.9375 5.683593-14.394531 10.765626-15.652344 32.179688-19.617187 47.832032-8.851563l31.355468 21.566407-11.070312-59.804688c-.621094-3.351562-.652344-6.671875-.175781-9.863281 1.835937-12.300781 11.265625-22.644531 24.175781-25.023438 16.261719-3.015624 31.882812 7.730469 34.898438 23.988282l11.054687 59.808594c10.757813-15.628907 21.566406-31.34375 21.566406-31.34375 7.699219-11.199219 20.847657-16.414063 33.441407-14.535157 5.011718.746094 9.9375 2.613281 14.394531 5.683594 15.652343 10.765625 19.609375 32.1875 8.839843 47.839844l-62.183593 90.410156c-1.375 1.996094-2.214844 4.207031-2.550781 6.445313-.839844 5.648437 1.5 11.535156 6.515624 14.984374 7.007813 4.828126 16.601563 3.046876 21.429688-3.964843l.089844-.132813 24.277344-35.285156c14.253906-20.730469 42.625-25.984375 63.355468-11.722656 20.730469 14.261718 25.980469 42.632812 11.71875 63.363281zm0 0" fill="#ff4440"/><g fill="#ea2f2f"><path d="m391.453125 410.730469c-3.695313 0-6.976563-2.628907-7.675781-6.394531l-55.808594-301.753907c-.785156-4.242187 2.019531-8.320312 6.261719-9.105469 4.238281-.78125 8.320312 2.019532 9.105469 6.261719l55.8125 301.753907c.78125 4.246093-2.019532 8.320312-6.265626 9.105468-.480468.089844-.957031.132813-1.429687.132813zm0 0"/><path d="m346.613281 168.277344c-1.527343 0-3.070312-.445313-4.421875-1.378906l-47.125-32.414063c-3.554687-2.445313-4.453125-7.308594-2.007812-10.863281 2.445312-3.558594 7.308594-4.457032 10.867187-2.011719l40.6875 27.984375 27.984375-40.6875c2.445313-3.554688 7.3125-4.453125 10.867188-2.007812 3.554687 2.445312 4.453125 7.3125 2.011718 10.867187l-32.417968 47.125c-1.515625 2.203125-3.960938 3.386719-6.445313 3.386719zm0 0"/><path d="m371.839844 304.675781c-1.523438 0-3.066406-.445312-4.417969-1.375l-61.820313-42.523437c-3.554687-2.445313-4.453124-7.308594-2.007812-10.867188 2.445312-3.554687 7.3125-4.457031 10.867188-2.007812l55.378906 38.089844 38.089844-55.375c2.445312-3.558594 7.3125-4.457032 10.867187-2.011719 3.554687 2.445312 4.453125 7.3125 2.011719 10.867187l-42.523438 61.816406c-1.511718 2.203126-3.957031 3.386719-6.445312 3.386719zm0 0"/></g></svg>