<?xml version="1.0" encoding="iso-8859-1"?>
<!-- Generator: Adobe Illustrator 19.0.0, SVG Export Plug-In . SVG Version: 6.00 Build 0)  -->
<svg version="1.1" id="Capa_1" xmlns="http://www.w3.org/2000/svg" xmlns:xlink="http://www.w3.org/1999/xlink" x="0px" y="0px"
	 viewBox="0 0 512 512" style="enable-background:new 0 0 512 512;" xml:space="preserve">
<g>
	<path style="fill:#8C4402;" d="M135.528,212.006c-9.004-9.004-14.446-21.418-14.446-35.043v-0.734
		c0-14.29,6.163-27.881,16.908-37.293c10.735-9.402,25-13.717,39.138-11.839c24.566,3.265,46.172,3.497,67.994,0.729
		c14.199-1.801,28.486,2.58,39.198,12.02c10.658,9.38,16.762,22.916,16.762,37.117c0,24.51-17.614,45.103-41.882,48.966
		c-31.93,5.083-64.308,5.082-96.237,0C152.186,224.214,142.721,219.199,135.528,212.006z"/>
	<path style="fill:#8C4402;" d="M213,148.176c-16.077,0-32.154-1.271-48.119-3.813C140.613,140.5,123,119.907,123,95.397v-0.74
		c0-14.283,6.163-27.874,16.909-37.286c10.734-9.402,24.997-13.719,39.138-11.839c24.566,3.265,46.171,3.495,67.993,0.729
		c14.198-1.8,28.485,2.579,39.197,12.019C296.891,67.666,303,81.195,303,95.397c0,24.51-17.613,45.104-41.881,48.967
		C245.154,146.906,229.077,148.176,213,148.176z"/>
</g>
<path style="fill:#723802;" d="M286.237,58.279c-8.453-7.448-19.133-11.73-30.237-12.327v99.175
	c1.707-0.242,3.414-0.492,5.119-0.763C285.387,140.5,303,119.907,303,95.397C303,81.195,296.891,67.666,286.237,58.279z"/>
<path style="fill:#8C4402;" d="M369,511.923H143v-17c0-24.813-20.187-45-45-45v-30h316v30c-24.813,0-45,20.187-45,45V511.923z"/>
<path style="fill:#723802;" d="M256,511.923h113v-17c0-24.813,20.187-45,45-45v-30H256V511.923z"/>
<path style="fill:#FEA832;" d="M94.481,232.988c-12.733,0-25.359-4.93-34.994-14.564l-0.519-0.519
	c-10.105-10.104-15.357-24.072-14.414-38.326c0.942-14.239,7.978-27.377,19.304-36.046c19.68-15.063,35.121-30.176,48.594-47.563
	c8.767-11.313,21.967-18.318,36.216-19.218c14.169-0.904,28.056,4.352,38.098,14.394c17.331,17.331,19.438,44.348,5.01,64.239
	c-18.983,26.172-41.879,49.066-68.05,68.05C114.893,229.841,104.653,232.988,94.481,232.988z"/>
<path style="fill:#FE9922;" d="M352,232.929c-16.077,0-32.154-1.271-48.118-3.812C279.613,225.254,262,204.661,262,180.151v-0.741
	c0-14.283,6.163-27.873,16.908-37.285c10.735-9.402,25.004-13.718,39.139-11.839c24.564,3.265,46.17,3.496,67.994,0.729
	c14.198-1.8,28.486,2.58,39.196,12.019C435.891,152.419,442,165.949,442,180.151c0,24.51-17.613,45.104-41.881,48.967
	C384.154,231.659,368.077,232.929,352,232.929z"/>
<path style="fill:#FFDF82;" d="M363.52,156.963c-10.173,0-20.411-3.146-29.246-9.556c-26.171-18.982-49.066-41.878-68.05-68.049
	c-14.428-19.892-12.321-46.908,5.011-64.239l0.514-0.515c10.11-10.11,24.076-15.36,38.332-14.418
	c14.239,0.942,27.377,7.979,36.045,19.304c15.063,19.681,30.177,35.121,47.563,48.595c11.313,8.767,18.318,21.966,19.218,36.215
	c0.896,14.17-4.351,28.057-14.394,38.099C388.879,152.033,376.251,156.963,363.52,156.963z"/>
<path style="fill:#BF6016;" d="M397,451.923H115c-63.411,0-115-51.589-115-115v-134h512v134
	C512,400.334,460.411,451.923,397,451.923z"/>
<path style="fill:#994C11;" d="M256,202.923v249h141c63.411,0,115-51.589,115-115v-134H256z"/>
<path style="fill:#FEDBAB;" d="M256,203.176c-16.077,0-32.154-1.271-48.119-3.813C183.613,195.5,166,174.907,166,150.397v-0.74
	c0-14.283,6.163-27.874,16.909-37.286c10.735-9.402,24.996-13.718,39.138-11.839c24.567,3.267,46.171,3.499,67.993,0.729
	c14.199-1.802,28.485,2.579,39.197,12.019C339.891,122.666,346,136.195,346,150.397c0,24.51-17.613,45.104-41.881,48.967
	C288.154,201.906,272.077,203.176,256,203.176z"/>
<path style="fill:#FEC478;" d="M329.237,113.279c-10.712-9.439-24.998-13.82-39.197-12.019c-11.258,1.429-22.461,2.053-34.04,1.879
	v100.037c16.077,0,32.154-1.271,48.119-3.813C328.387,195.5,346,174.907,346,150.397C346,136.195,339.891,122.666,329.237,113.279z"
	/>
<g>
</g>
<g>
</g>
<g>
</g>
<g>
</g>
<g>
</g>
<g>
</g>
<g>
</g>
<g>
</g>
<g>
</g>
<g>
</g>
<g>
</g>
<g>
</g>
<g>
</g>
<g>
</g>
<g>
</g>
</svg>
