<svg height="480pt" viewBox="0 0 480.02363 480" width="480pt" xmlns="http://www.w3.org/2000/svg"><path d="m341.691406 341.691406c-35.613281 36.949219-84.300781 58.464844-135.597656 59.917969-34.167969.804687-67.222656-12.132813-91.761719-35.917969-56-56.082031-45.28125-158.082031 24-227.363281 69.28125-69.277344 171.28125-80.078125 227.359375-24 56.082032 56.082031 45.28125 158.082031-24 227.363281zm0 0" fill="#f7931e"/><g fill="#f15a24"><path d="m365.730469 114.28125c-20.636719-20.222656-47.671875-32.621094-76.460938-35.070312 9.941407 85.472656 46.398438 157.6875 96.597657 198.0625 25.730468-58.574219 20.152343-122.648438-20.136719-162.992188zm0 0"/><path d="m281.402344 384.058594c21.765625-10.238282 41.640625-24.082032 58.785156-40.945313-65.710938-48.703125-116.039062-146.304687-112.703125-257.976562-26.691406 7.75-51.507813 20.894531-72.914063 38.617187-4.519531 105.121094 53.042969 206.464844 126.832032 260.304688zm0 0"/><path d="m90.507812 211.355469c-21.480468 56.140625-14.398437 115.941406 23.863282 154.285156 24.375 23.628906 57.171875 36.546875 91.113281 35.890625-56.832031-40.722656-100.199219-110.042969-114.976563-190.175781zm0 0"/></g><path d="m480.011719 104.507812c-.191407 2.746094-1.753907 5.214844-4.160157 6.558594l-83.121093 45.359375c-21.78125-24.261719-44.855469-47.335937-69.117188-69.121093l45.359375-83.117188c1.34375-2.40625 3.8125-3.96875 6.558594-4.1601562 2.746094-.1679688 5.382812 1.1054682 6.960938 3.3593752l39.28125 54.878906 54.878906 39.28125c2.238281 1.589844 3.507812 4.214844 3.359375 6.960937zm0 0" fill="#f7931e"/><path d="m156.429688 392.730469-45.363282 83.121093c-1.34375 2.402344-3.808594 3.96875-6.558594 4.160157h-.496093c-2.574219-.011719-4.988281-1.265625-6.480469-3.363281l-39.28125-54.878907-54.878906-39.28125c-2.238282-1.585937-3.507813-4.214843-3.3593752-6.957031.1914062-2.75 1.7578122-5.214844 4.1601562-6.5625l83.199219-45.359375c1.136718 3.359375 65.695312 67.921875 69.058594 69.121094zm0 0" fill="#f7931e"/><path d="m115.410156 353.296875-49.054687 49.058594 11.3125 11.3125 49.046875-49.050781c-3.75-3.734376-7.574219-7.558594-11.304688-11.320313zm0 0" fill="#ffcc5c"/><path d="m402.355469 66.355469-48.9375 48.933593c3.761719 3.730469 7.585937 7.554688 11.3125 11.3125l48.9375-48.933593zm0 0" fill="#ffcc5c"/></svg>