<?xml version="1.0" encoding="utf-8"?>
<!-- Generator: Adobe Illustrator 22.0.0, SVG Export Plug-In . SVG Version: 6.00 Build 0)  -->
<svg version="1.1" xmlns="http://www.w3.org/2000/svg" xmlns:xlink="http://www.w3.org/1999/xlink" x="0px" y="0px"
	 viewBox="0 0 1366 678" style="enable-background:new 0 0 1366 678;" xml:space="preserve">
<style type="text/css">
	.st0{fill:url(#BackGroundGradient_1_);}
	.st1{fill:#FFFFFF;}
</style>
<g id="BackgroundGradient">
	
		<linearGradient id="BackGroundGradient_1_" gradientUnits="userSpaceOnUse" x1="683" y1="164.1" x2="683" y2="838.9645" gradientTransform="matrix(1 0 0 1 0 -164)">
		<stop  offset="0.3265" style="stop-color:#72C4CC"/>
		<stop  offset="0.4403" style="stop-color:#6BBBC6"/>
		<stop  offset="0.6223" style="stop-color:#57A4B6"/>
		<stop  offset="0.8486" style="stop-color:#387E9B"/>
		<stop  offset="1" style="stop-color:#1F6187"/>
	</linearGradient>
	<path id="BackGroundGradient" class="st0" d="M226.3,623.1c7.5,2.6,15.3,5.6,23.6,5.4c7-0.2,13.5-2.7,19.8-4.9
		c78-27.6,173.6-27.2,251.2,1c5.7,2.1,11.7,4.4,18.2,4.3c5.9-0.1,11.3-2.2,16.6-4.1c77-28.1,172-28.8,249.7-1.7
		c7.7,2.6,15.6,5.6,24.1,5.3c6.8-0.3,13-2.6,19.1-4.8c78-27.5,173.6-27.1,251.2,1.1c5.9,2.1,12.1,4.5,18.7,4.3
		c5.7-0.2,10.9-2.2,15.9-4.1c39.4-14.7,83.4-21.9,127.6-21.9c36.7,0,71.7,5,104,14V185c-101.7-0.5-183.9-83-184-184.9H0v618.1
		C70,597.5,151,596.3,226.3,623.1z"/>
</g>
<g id="_x31__x2F_4Circle_1_">
	<path id="_x31__x2F_4Circle" d="M1366,184.9V0.1h-184.7C1181.4,101.9,1264,184.4,1366,184.9z"/>
</g>
<g id="BottomPart">
	<path id="BottomPart_1_" class="st1" d="M1134.4,624.9c-5,1.9-10.2,3.9-15.9,4.1c-6.6,0.2-12.8-2.2-18.7-4.3
		c-77.6-28.2-173.2-28.6-251.2-1.1c-6.1,2.2-12.3,4.5-19.1,4.8c-8.5,0.3-16.4-2.7-24.1-5.3c-77.7-27.1-172.7-26.4-249.7,1.7
		c-5.3,1.9-10.7,4-16.6,4.1c-6.5,0.1-12.5-2.2-18.2-4.3c-77.6-28.2-173.2-28.6-251.2-1c-6.3,2.2-12.8,4.7-19.8,4.9
		c-8.3,0.2-16.1-2.8-23.6-5.4C151,596.3,70,597.5,0,618.2V678h1366v-61c-32.3-9-67.3-14-104-14
		C1217.8,603,1173.8,610.2,1134.4,624.9z"/>
</g>
</svg>
