<?xml version="1.0" encoding="utf-8"?>
<!-- Generator: Adobe Illustrator 22.0.0, SVG Export Plug-In . SVG Version: 6.00 Build 0)  -->
<svg version="1.1" xmlns="http://www.w3.org/2000/svg" xmlns:xlink="http://www.w3.org/1999/xlink" x="0px" y="0px"
	 viewBox="0 0 1366 678" style="enable-background:new 0 0 1366 678;" xml:space="preserve">
<style type="text/css">
	.st0{fill:url(#BackgroundColour_1_);}
	.st1{fill:#FFFFFF;}
	.st2{font-family:'Amatic SC';}
	.st3{font-size:60px;}
	.st4{font-size:30px;}
	.st5{fill:none;stroke:#FFFFFF;stroke-width:2;stroke-linecap:round;stroke-linejoin:round;stroke-miterlimit:10;}
	.st6{fill:#2D6C89;}
	.st7{filter:url(#Adobe_OpacityMaskFilter);}
	.st8{filter:url(#Adobe_OpacityMaskFilter_1_);}
	.st9{mask:url(#SVGID_1_);fill:url(#SVGID_2_);}
	.st10{opacity:0.6;fill:url(#SVGID_3_);}
	.st11{filter:url(#Adobe_OpacityMaskFilter_2_);}
	.st12{filter:url(#Adobe_OpacityMaskFilter_3_);}
	.st13{mask:url(#SVGID_4_);fill:url(#SVGID_5_);}
	.st14{opacity:0.6;fill:url(#SVGID_6_);}
	.st15{filter:url(#Adobe_OpacityMaskFilter_4_);}
	.st16{filter:url(#Adobe_OpacityMaskFilter_5_);}
	.st17{mask:url(#SVGID_7_);fill:url(#SVGID_8_);}
	.st18{opacity:0.6;fill:url(#SVGID_9_);}
	.st19{fill:url(#SVGID_10_);}
	.st20{fill:url(#SVGID_11_);}
	.st21{fill:url(#SVGID_12_);}
	.st22{fill:url(#SVGID_13_);}
	.st23{fill:url(#SVGID_14_);}
	.st24{fill:url(#SVGID_15_);}
	.st25{fill:url(#SVGID_16_);}
	.st26{fill:url(#SVGID_17_);}
	.st27{fill:url(#SVGID_18_);}
	.st28{fill:#0C1E32;}
	.st29{fill:url(#SVGID_19_);}
	.st30{fill:url(#SVGID_20_);}
	.st31{fill:url(#SVGID_21_);}
	.st32{fill:url(#SVGID_22_);}
	.st33{fill:#0D405C;}
	.st34{fill:#EFA138;}
	.st35{fill:#CB7429;}
	.st36{fill:#D88128;}
	.st37{opacity:0.4;fill:#D88128;}
	.st38{fill:#FCC947;}
	.st39{fill:#D58028;}
	.st40{fill:#B26027;}
	.st41{fill:#E6F5FC;}
	.st42{fill:#B8D5F0;}
	.st43{fill:#F3F3C3;}
	.st44{fill:#F2F2F2;}
	.st45{fill:#F9FAF8;}
	.st46{fill:#CBCBCA;}
	.st47{fill:#B3B2B3;}
	.st48{fill:#1C5371;}
	.st49{fill:#527E9A;}
	.st50{fill:#FFF171;}
	.st51{fill:#EE7601;}
	.st52{fill:#FFCC08;}
	.st53{fill:#E6F5FF;}
	.st54{fill:#B5D8FF;}
	.st55{fill:url(#Falling_Star__10_1_);}
	.st56{fill:url(#Falling_Star_9_2_);}
	.st57{fill:url(#Falling_Star_8_2_);}
	.st58{fill:url(#Falling_Star_7_2_);}
	.st59{fill:url(#Falling_Star_6_2_);}
	.st60{fill:url(#Falling_Star_5_1_);}
	.st61{fill:url(#Falling_Star_4_1_);}
	.st62{fill:url(#Falling_Star_3_1_);}
	.st63{fill:url(#Falling_Star_2_2_);}
	.st64{fill:url(#FallingStar1_2_);}
</style>
<g id="Background">
	<linearGradient id="BackgroundColour_1_" gradientUnits="userSpaceOnUse" x1="683.8419" y1="681.1061" x2="683.8419" y2="-0.6692">
		<stop  offset="0.3265" style="stop-color:#72C4CC"/>
		<stop  offset="0.4403" style="stop-color:#6BBBC6"/>
		<stop  offset="0.6223" style="stop-color:#57A4B6"/>
		<stop  offset="0.8486" style="stop-color:#387E9B"/>
		<stop  offset="1" style="stop-color:#1F6187"/>
	</linearGradient>
	<rect id="BackgroundColour" x="1" y="0.1" class="st0" width="1365.6" height="679.9"/>
	<path id="_x31__x2F_4C_Circle" d="M1366,680h-185c0.5-101.7,83.1-184,185-184"/>
</g>
<g id="QuoteText_1_">
	<text id="QuoteText" transform="matrix(1 0 0 1 35.9238 274)" class="st1 st2 st3">“a perfect night”</text>
</g>
<g id="ScrollText">
	<text id="ScrollTExt" transform="matrix(1 0 0 1 1221.5371 603)" class="st1 st2 st4">Scroll for more</text>
</g>
<g id="CommentText_1_">
	<text id="CommentText" transform="matrix(1 0 0 1 179.4873 327)" class="st2 st4">FROM MY POINT OF VIEW</text>
</g>
<g id="Arrow3_1_">
	<g id="Arrow3">
		<polyline class="st5" points="1345.3,650.4 1330.8,665 1330.8,665 1316.2,650.4 		"/>
		<line class="st5" x1="1330.8" y1="626" x2="1330.8" y2="665"/>
	</g>
</g>
<g id="Arrow2">
	<g id="Arrow2_1_">
		<polyline class="st5" points="1302.5,650.4 1288,665 1288,665 1273.5,650.4 		"/>
		<line class="st5" x1="1288" y1="626" x2="1288" y2="665"/>
	</g>
</g>
<g id="Arrow1">
	<g id="Arrow1_1_">
		<polyline class="st5" points="1258.1,650.4 1243.5,665 1243.5,665 1229,650.4 		"/>
		<line class="st5" x1="1243.5" y1="626" x2="1243.5" y2="665"/>
	</g>
</g>
<g id="Tend_x2F_Trees_x2F_Moutnains">
	<g>
		<g id="Trees_x26_Mountains">
			<g>
				<g>
					<polygon class="st6" points="978.4,455.3 685.9,8.4 393.4,455.3 					"/>
					<defs>
						<filter id="Adobe_OpacityMaskFilter" filterUnits="userSpaceOnUse" x="685.9" y="8.4" width="292.5" height="446.9">
							<feFlood  style="flood-color:white;flood-opacity:1" result="back"/>
							<feBlend  in="SourceGraphic" in2="back" mode="normal"/>
						</filter>
					</defs>
					<mask maskUnits="userSpaceOnUse" x="685.9" y="8.4" width="292.5" height="446.9" id="SVGID_1_">
						<g class="st7">
							<defs>
								<filter id="Adobe_OpacityMaskFilter_1_" filterUnits="userSpaceOnUse" x="685.9" y="8.4" width="292.5" height="446.9">
									<feFlood  style="flood-color:white;flood-opacity:1" result="back"/>
									<feBlend  in="SourceGraphic" in2="back" mode="normal"/>
								</filter>
							</defs>
							<mask maskUnits="userSpaceOnUse" x="685.9" y="8.4" width="292.5" height="446.9" id="SVGID_1_">
								<g class="st8">
								</g>
							</mask>
							<linearGradient id="SVGID_2_" gradientUnits="userSpaceOnUse" x1="832.134" y1="455.2767" x2="832.134" y2="8.4246">
								<stop  offset="0.561" style="stop-color:#000000"/>
								<stop  offset="0.6418" style="stop-color:#2A2A2A"/>
								<stop  offset="0.8224" style="stop-color:#949494"/>
								<stop  offset="0.9949" style="stop-color:#FFFFFF"/>
							</linearGradient>
							<polygon class="st9" points="978.4,455.3 685.9,8.4 685.9,455.3 							"/>
						</g>
					</mask>
					<linearGradient id="SVGID_3_" gradientUnits="userSpaceOnUse" x1="832.134" y1="455.2767" x2="832.134" y2="8.4246">
						<stop  offset="0.561" style="stop-color:#C6E7EB"/>
						<stop  offset="0.9949" style="stop-color:#D0D2D3"/>
					</linearGradient>
					<polygon class="st10" points="978.4,455.3 685.9,8.4 685.9,455.3 					"/>
				</g>
				<g>
					<polygon class="st6" points="687.3,455.3 490.1,154 292.9,455.3 					"/>
					<defs>
						<filter id="Adobe_OpacityMaskFilter_2_" filterUnits="userSpaceOnUse" x="490.1" y="154" width="197.2" height="301.3">
							<feFlood  style="flood-color:white;flood-opacity:1" result="back"/>
							<feBlend  in="SourceGraphic" in2="back" mode="normal"/>
						</filter>
					</defs>
					<mask maskUnits="userSpaceOnUse" x="490.1" y="154" width="197.2" height="301.3" id="SVGID_4_">
						<g class="st11">
							<defs>
								<filter id="Adobe_OpacityMaskFilter_3_" filterUnits="userSpaceOnUse" x="490.1" y="154" width="197.2" height="301.3">
									<feFlood  style="flood-color:white;flood-opacity:1" result="back"/>
									<feBlend  in="SourceGraphic" in2="back" mode="normal"/>
								</filter>
							</defs>
							<mask maskUnits="userSpaceOnUse" x="490.1" y="154" width="197.2" height="301.3" id="SVGID_4_">
								<g class="st12">
								</g>
							</mask>

								<linearGradient id="SVGID_5_" gradientUnits="userSpaceOnUse" x1="5095.8198" y1="679.7997" x2="5095.8198" y2="153.9663" gradientTransform="matrix(-1 0 0 1 5684.5498 0)">
								<stop  offset="0.6427" style="stop-color:#000000"/>
								<stop  offset="0.7082" style="stop-color:#2A2A2A"/>
								<stop  offset="0.8548" style="stop-color:#949494"/>
								<stop  offset="0.9949" style="stop-color:#FFFFFF"/>
							</linearGradient>
							<polygon class="st13" points="687.3,455.3 490.1,154 490.1,455.3 							"/>
						</g>
					</mask>

						<linearGradient id="SVGID_6_" gradientUnits="userSpaceOnUse" x1="5095.8198" y1="679.7997" x2="5095.8198" y2="153.9663" gradientTransform="matrix(-1 0 0 1 5684.5498 0)">
						<stop  offset="0.6427" style="stop-color:#C6E7EB"/>
						<stop  offset="0.9949" style="stop-color:#D0D2D3"/>
					</linearGradient>
					<polygon class="st14" points="687.3,455.3 490.1,154 490.1,455.3 					"/>
				</g>
				<g>
					<polygon class="st6" points="1074,455.3 836.7,92.7 599.4,455.3 					"/>
					<defs>
						<filter id="Adobe_OpacityMaskFilter_4_" filterUnits="userSpaceOnUse" x="836.7" y="92.7" width="237.3" height="362.6">
							<feFlood  style="flood-color:white;flood-opacity:1" result="back"/>
							<feBlend  in="SourceGraphic" in2="back" mode="normal"/>
						</filter>
					</defs>
					<mask maskUnits="userSpaceOnUse" x="836.7" y="92.7" width="237.3" height="362.6" id="SVGID_7_">
						<g class="st15">
							<defs>
								<filter id="Adobe_OpacityMaskFilter_5_" filterUnits="userSpaceOnUse" x="836.7" y="92.7" width="237.3" height="362.6">
									<feFlood  style="flood-color:white;flood-opacity:1" result="back"/>
									<feBlend  in="SourceGraphic" in2="back" mode="normal"/>
								</filter>
							</defs>
							<mask maskUnits="userSpaceOnUse" x="836.7" y="92.7" width="237.3" height="362.6" id="SVGID_7_">
								<g class="st16">
								</g>
							</mask>

								<linearGradient id="SVGID_8_" gradientUnits="userSpaceOnUse" x1="4729.2021" y1="725.4392" x2="4729.2021" y2="92.7179" gradientTransform="matrix(-1 0 0 1 5684.5498 0)">
								<stop  offset="0.561" style="stop-color:#000000"/>
								<stop  offset="0.6418" style="stop-color:#2A2A2A"/>
								<stop  offset="0.8224" style="stop-color:#949494"/>
								<stop  offset="0.9949" style="stop-color:#FFFFFF"/>
							</linearGradient>
							<polygon class="st17" points="1074,455.3 836.7,92.7 836.7,455.3 							"/>
						</g>
					</mask>

						<linearGradient id="SVGID_9_" gradientUnits="userSpaceOnUse" x1="4729.2021" y1="725.4392" x2="4729.2021" y2="92.7179" gradientTransform="matrix(-1 0 0 1 5684.5498 0)">
						<stop  offset="0.561" style="stop-color:#C6E7EB"/>
						<stop  offset="0.9949" style="stop-color:#D0D2D3"/>
					</linearGradient>
					<polygon class="st18" points="1074,455.3 836.7,92.7 836.7,455.3 					"/>
				</g>
			</g>
			<g>
				<g>
					<linearGradient id="SVGID_10_" gradientUnits="userSpaceOnUse" x1="395.8195" y1="178.3199" x2="395.8195" y2="453.934">
						<stop  offset="0" style="stop-color:#0D405C"/>
						<stop  offset="0.5418" style="stop-color:#0D3C57"/>
						<stop  offset="1" style="stop-color:#0E354D"/>
					</linearGradient>
					<path class="st19" d="M507.4,455.3v-14.1c8.2-2.6,14.1-9.5,14.1-17.6c0-10.3-9.5-18.7-21.1-18.7c-5.9,0-11.1,2.1-15,5.5
						c-2.4-5.3-8.2-9-15-9c-5.4,0-10.1,2.3-13.1,5.9c-3.4-2-7.4-3.2-11.7-3.2c-10.1,0-18.5,6.2-20.6,14.5c-2.9-2.7-7.1-4.4-11.7-4.4
						c-4.3,0-8.3,1.5-11.2,4c-2.6-7.7-10.7-13.4-20.2-13.4c-11.7,0-21.1,8.4-21.1,18.7c0,0.5,0,1,0.1,1.5c0,0-0.1,0-0.1,0
						c-4.5,0-8.5,1.6-11.5,4.2c-3-4.6-8.6-7.7-15-7.7c-5.9,0-11.1,2.6-14.2,6.5c-3.3-1.9-7.3-3.1-11.6-3.1c-10.7,0-19.5,7-20.9,16.1
						c-0.4,0-0.8-0.1-1.2-0.1c-8.9,0-16,6.3-16.2,14.1H507.4z"/>
					<linearGradient id="SVGID_11_" gradientUnits="userSpaceOnUse" x1="968.7512" y1="178.3199" x2="968.7512" y2="453.934">
						<stop  offset="0" style="stop-color:#0D405C"/>
						<stop  offset="0.5418" style="stop-color:#0D3C57"/>
						<stop  offset="1" style="stop-color:#0E354D"/>
					</linearGradient>
					<path class="st20" d="M857.2,455.3v-14.1c-8.2-2.6-14.1-9.5-14.1-17.6c0-10.3,9.5-18.7,21.1-18.7c5.9,0,11.1,2.1,15,5.5
						c2.4-5.3,8.2-9,15-9c5.4,0,10.1,2.3,13.1,5.9c3.4-2,7.4-3.2,11.7-3.2c10.1,0,18.5,6.2,20.6,14.5c2.9-2.7,7.1-4.4,11.7-4.4
						c4.3,0,8.3,1.5,11.2,4c2.6-7.7,10.7-13.4,20.2-13.4c11.7,0,21.1,8.4,21.1,18.7c0,0.5,0,1-0.1,1.5c0,0,0.1,0,0.1,0
						c4.5,0,8.5,1.6,11.5,4.2c3-4.6,8.6-7.7,15-7.7c5.9,0,11.1,2.6,14.2,6.5c3.3-1.9,7.3-3.1,11.6-3.1c10.7,0,19.5,7,20.9,16.1
						c0.4,0,0.8-0.1,1.2-0.1c8.9,0,16,6.3,16.2,14.1H857.2z"/>
				</g>
			</g>
			<g>
				<g>
					<g>
						<g>
							<linearGradient id="SVGID_12_" gradientUnits="userSpaceOnUse" x1="579.5007" y1="178.3197" x2="579.5007" y2="453.9345">
								<stop  offset="0" style="stop-color:#0D405C"/>
								<stop  offset="0.5418" style="stop-color:#0D3C57"/>
								<stop  offset="1" style="stop-color:#0E354D"/>
							</linearGradient>
							<polygon class="st21" points="509.4,413.9 479.2,455.3 679.8,455.3 649.6,413.9 673.7,413.9 634.8,360.8 652.8,360.8
								619.6,315.3 636.6,315.3 603.8,270.4 621.2,270.4 579.5,213.3 537.8,270.4 555.2,270.4 522.4,315.3 539.4,315.3 506.2,360.8
								524.2,360.8 485.3,413.9 							"/>
						</g>
					</g>
					<g>
						<g>
							<linearGradient id="SVGID_13_" gradientUnits="userSpaceOnUse" x1="529.3563" y1="480.1445" x2="529.3563" y2="213.3223">
								<stop  offset="0" style="stop-color:#0E354D"/>
								<stop  offset="0.3211" style="stop-color:#15435E"/>
								<stop  offset="1" style="stop-color:#225D7E"/>
							</linearGradient>
							<polygon class="st22" points="513.1,408.9 479.2,455.3 579.5,455.3 579.5,213.3 537.8,270.4 558.6,265.7 522.4,315.3
								543.2,310.1 506.2,360.8 528.7,354.6 485.3,413.9 							"/>
						</g>
					</g>
				</g>
				<g>
					<g>
						<g>
							<linearGradient id="SVGID_14_" gradientUnits="userSpaceOnUse" x1="686.0054" y1="178.3198" x2="686.0054" y2="453.9336">
								<stop  offset="0" style="stop-color:#0D405C"/>
								<stop  offset="0.5418" style="stop-color:#0D3C57"/>
								<stop  offset="1" style="stop-color:#0E354D"/>
							</linearGradient>
							<polygon class="st23" points="811.5,455.3 760.2,385.1 785.8,385.1 744.6,328.8 763.7,328.8 728.5,280.7 746.5,280.7
								711.7,233.1 730.2,233.1 686,172.6 641.9,233.1 660.3,233.1 625.5,280.7 643.5,280.7 608.3,328.8 627.4,328.8 586.2,385.1
								611.8,385.1 560.5,455.3 							"/>
						</g>
					</g>
					<g>
						<linearGradient id="SVGID_15_" gradientUnits="userSpaceOnUse" x1="623.2656" y1="455.2767" x2="623.2656" y2="172.6385">
							<stop  offset="0" style="stop-color:#0E354D"/>
							<stop  offset="0.3211" style="stop-color:#15435E"/>
							<stop  offset="1" style="stop-color:#225D7E"/>
						</linearGradient>
						<polygon class="st24" points="686,455.3 686,172.6 641.9,233.1 663.9,228.1 625.5,280.7 647.5,275.1 608.3,328.8 632.2,322.3
							586.2,385.1 615.7,379.8 560.5,455.3 						"/>
					</g>
				</g>
				<g>
					<g>
						<g>
							<g>
								<linearGradient id="SVGID_16_" gradientUnits="userSpaceOnUse" x1="813.675" y1="178.3196" x2="813.675" y2="453.9341">
									<stop  offset="0" style="stop-color:#0D405C"/>
									<stop  offset="0.5418" style="stop-color:#0D3C57"/>
									<stop  offset="1" style="stop-color:#0E354D"/>
								</linearGradient>
								<polygon class="st25" points="755.2,420.7 729.9,455.3 897.4,455.3 872.2,420.7 892.3,420.7 859.9,376.3 874.9,376.3
									847.2,338.4 861.4,338.4 834,300.8 848.5,300.8 813.7,253.2 778.9,300.8 793.4,300.8 766,338.4 780.2,338.4 752.4,376.3
									767.5,376.3 735,420.7 								"/>
							</g>
						</g>
					</g>
					<g>
						<linearGradient id="SVGID_17_" gradientUnits="userSpaceOnUse" x1="771.7972" y1="476.0449" x2="771.7972" y2="253.2101">
							<stop  offset="0" style="stop-color:#0E354D"/>
							<stop  offset="0.3211" style="stop-color:#15435E"/>
							<stop  offset="1" style="stop-color:#225D7E"/>
						</linearGradient>
						<polygon class="st26" points="758.2,416.6 729.9,455.3 813.7,455.3 813.7,253.2 778.9,300.8 796.3,296.9 766,338.4 783.4,334
							752.4,376.3 771.2,371.2 735,420.7 						"/>
					</g>
				</g>
			</g>
			<g>
				<g>
					<g>
						<linearGradient id="SVGID_18_" gradientUnits="userSpaceOnUse" x1="915.3369" y1="432.2867" x2="915.3369" y2="360.4753">
							<stop  offset="0.2755" style="stop-color:#2D6C89"/>
							<stop  offset="0.4526" style="stop-color:#31718D"/>
							<stop  offset="0.6679" style="stop-color:#3D8098"/>
							<stop  offset="0.9022" style="stop-color:#5198AB"/>
							<stop  offset="1" style="stop-color:#5BA5B4"/>
						</linearGradient>
						<ellipse class="st27" cx="915.3" cy="396.4" rx="40.6" ry="35.9"/>
					</g>
					<path class="st28" d="M936.8,403.1h-3.7c-1.5,2.6-5.4,8.2-12.2,12.5l0,0c0,0-1.3,0.8-2.2,0.5c-1.1-0.3-1.6-1.4-1.7-5.1v-14.7
						h-3.3v13.6c-0.1,4.6-0.5,5.8-1.7,6.2c-1,0.3-2.2-0.5-2.2-0.5l0,0c-6.7-4.2-10.6-9.9-12.2-12.5h-3.7c0.7,1.4,4.5,8.3,12.4,13.8
						l0,0c0,0,5.2,3.4,5.2,7.8v30.5h7.7v-30.9c0.3-4.2,5.2-7.5,5.2-7.5l0,0C932.2,411.4,936.1,404.4,936.8,403.1z"/>
				</g>
				<g>
					<g>
						<g>
							<linearGradient id="SVGID_19_" gradientUnits="userSpaceOnUse" x1="495.5303" y1="420.2037" x2="495.5303" y2="322.4334">
								<stop  offset="0.2755" style="stop-color:#2D6C89"/>
								<stop  offset="0.4526" style="stop-color:#31718D"/>
								<stop  offset="0.6679" style="stop-color:#3D8098"/>
								<stop  offset="0.9022" style="stop-color:#5198AB"/>
								<stop  offset="1" style="stop-color:#5BA5B4"/>
							</linearGradient>
							<ellipse class="st29" cx="495.5" cy="371.3" rx="55.3" ry="48.9"/>
						</g>
						<path class="st28" d="M524.7,380.4h-5c-2.1,3.5-7.4,11.2-16.6,17l0,0c0,0-1.8,1.1-3.1,0.7c-1.5-0.5-2.2-2-2.3-7v-20h-4.5v18.5
							c-0.1,6.3-0.7,8-2.4,8.5c-1.3,0.4-3.1-0.7-3.1-0.7l0,0c-9.1-5.8-14.5-13.5-16.6-17h-5c0.9,1.8,6.2,11.4,16.9,18.8l0,0
							c0,0,7.1,4.7,7.1,10.7v45.3h10.5v-45.8c0.4-5.7,7-10.2,7-10.2l0,0C518.5,391.8,523.8,382.3,524.7,380.4z"/>
					</g>
					<g>
						<g>
							<linearGradient id="SVGID_20_" gradientUnits="userSpaceOnUse" x1="444.1338" y1="432.0941" x2="444.1338" y2="367.4697">
								<stop  offset="0.2755" style="stop-color:#2D6C89"/>
								<stop  offset="0.4526" style="stop-color:#31718D"/>
								<stop  offset="0.6679" style="stop-color:#3D8098"/>
								<stop  offset="0.9022" style="stop-color:#5198AB"/>
								<stop  offset="1" style="stop-color:#5BA5B4"/>
							</linearGradient>
							<ellipse class="st30" cx="444.1" cy="399.8" rx="36.6" ry="32.3"/>
						</g>
						<path class="st28" d="M463.4,405.8h-3.3c-1.4,2.3-4.9,7.4-11,11.2l0,0c0,0-1.2,0.7-2,0.5c-1-0.3-1.4-1.3-1.5-4.6v-13.2h-3
							v12.2c-0.1,4.1-0.5,5.3-1.6,5.6c-0.9,0.3-2-0.5-2-0.5l0,0c-6-3.8-9.6-8.9-11-11.2h-3.3c0.6,1.2,4.1,7.5,11.2,12.4l0,0
							c0,0,4.7,3.1,4.7,7v30h6.9V425c0.2-3.8,4.7-6.7,4.7-6.7l0,0C459.3,413.3,462.8,407,463.4,405.8z"/>
					</g>
				</g>
			</g>
		</g>
		<g id="Ground">
			<g>
				<linearGradient id="SVGID_21_" gradientUnits="userSpaceOnUse" x1="677.5433" y1="506.861" x2="677.5433" y2="777.6522">
					<stop  offset="0" style="stop-color:#2D6C89"/>
					<stop  offset="0.3521" style="stop-color:#43889E"/>
					<stop  offset="1" style="stop-color:#72C4CC"/>
				</linearGradient>
				<path class="st31" d="M694.6,672h-34c-4.3,0-7.8-3.5-7.8-7.8l0,0c0-4.3,3.5-7.8,7.8-7.8h34c4.3,0,7.8,3.5,7.8,7.8l0,0
					C702.3,668.5,698.8,672,694.6,672z"/>
				<linearGradient id="SVGID_22_" gradientUnits="userSpaceOnUse" x1="683" y1="506.8613" x2="683" y2="777.6531">
					<stop  offset="0" style="stop-color:#2D6C89"/>
					<stop  offset="0.3521" style="stop-color:#43889E"/>
					<stop  offset="1" style="stop-color:#72C4CC"/>
				</linearGradient>
				<path class="st32" d="M1076.2,501.5H289.8c-4.8,0-8.8,3.5-8.8,7.8c0,4.3,4,7.8,8.8,7.8H491c4.5,0.3,8.1,3.7,8.1,7.7
					c0,4-3.6,7.4-8.1,7.7H365.5c-4.8,0-8.8,3.5-8.8,7.8c0,4.3,4,7.8,8.8,7.8h83.8c-4.8,0.1-8.7,3.5-8.7,7.8c0,4.3,4,7.8,8.8,7.8
					h88.8c4.8,0,8.8,3.5,8.8,7.8s-4,7.8-8.8,7.8H431.9c-4.8,0-8.8,3.5-8.8,7.8v0c0,4.3,4,7.8,8.8,7.8h202.3c4.8,0,8.8,3.5,8.8,7.8v0
					c0,4.3-4,7.8-8.8,7.8h-74.7c-4.8,0-8.8,3.5-8.8,7.8c0,4.3,4,7.8,8.8,7.8H727c-4.4,0.4-7.8,3.7-7.8,7.7c0,4.3,4,7.8,8.8,7.8h82.5
					c4.8,0,8.8-3.5,8.8-7.8c0-4.3-4-7.8-8.8-7.8h-30.9c-4.4-0.4-7.8-3.7-7.8-7.7c0-4.3,4-7.8,8.8-7.8h100.2c4.8,0,8.8-3.5,8.8-7.8v0
					c0-4.3-4-7.8-8.8-7.8H719.3c-4.8,0-8.8-3.5-8.8-7.8v0c0-4.3,4-7.8,8.8-7.8h222.8c4.8,0,8.8-3.5,8.8-7.8s-4-7.8-8.8-7.8h61.3
					c4.8,0,8.8-3.5,8.8-7.8s-4-7.8-8.8-7.8h-80.2c-4.8-0.1-8.7-3.5-8.7-7.8c0-4,3.6-7.4,8.1-7.7h93.5c4.8,0,8.8-3.5,8.8-7.8
					c0-4.1-3.6-7.4-8.1-7.7h59.4c4.8,0,8.8-3.5,8.8-7.8C1084.9,505,1081,501.5,1076.2,501.5z M576.3,563.4c-4.8,0-8.8-3.5-8.8-7.8
					c0-4.2,3.9-7.7,8.7-7.8h38.5c4.8,0.1,8.7,3.5,8.7,7.8c0,4.3-4,7.8-8.8,7.8H576.3z M896.5,540.2c0,4.2-3.9,7.7-8.7,7.8h-32.2
					c-4.8-0.1-8.7-3.5-8.7-7.8c0-4.1,3.6-7.4,8.1-7.7h33.4C892.9,532.8,896.5,536.1,896.5,540.2z"/>
			</g>
			<path class="st33" d="M1099,501.5H267c-12.7,0-23.1-10.4-23.1-23.1v0c0-12.7,10.4-23.1,23.1-23.1H1099
				c12.7,0,23.1,10.4,23.1,23.1v0C1122.1,491.1,1111.7,501.5,1099,501.5z"/>
		</g>
		<g id="Tend">
			<g>
				<g>
					<polygon class="st34" points="793.8,416.6 686,309.6 578.7,416.6 592.1,455.3 780.5,455.3 					"/>
					<polygon class="st35" points="793.8,416.6 686,309.6 686,455.3 780.5,455.3 					"/>
				</g>
				<g>
					<g>
						<g>
							<path class="st28" d="M538,454.9v-4.1c0-0.7-0.6-1.2-1.4-1.2c-0.7,0-1.4,0.5-1.4,1.2v4.1H538z"/>
							<path class="st36" d="M535.3,455.3h3.6l51.3-48.6c0.3-0.3,0.3-0.8,0-1.1c-0.4-0.3-0.9-0.3-1.3,0l-50.8,48.1h-2.8
								c-0.5,0-0.9,0.4-0.9,0.8C534.4,454.9,534.8,455.3,535.3,455.3z"/>
						</g>
						<g>
							<polygon class="st37" points="686,350.9 686,331.9 566.6,426.7 							"/>
							<polygon class="st38" points="566.5,426.8 686,342 686,309.6 							"/>
							<polygon class="st39" points="566.5,426.8 581.4,424.4 579.1,417.8 							"/>
						</g>
					</g>
					<g>
						<g>
							<path class="st28" d="M833.9,455v-4.1c0-0.7,0.6-1.2,1.4-1.2s1.4,0.5,1.4,1.2v4.1H833.9z"/>
							<path class="st40" d="M833.1,455.4h3.6c0.5,0,0.9-0.4,0.9-0.8c0-0.5-0.4-0.8-0.9-0.8h-2.8l-50.8-48.1c-0.3-0.3-0.9-0.3-1.3,0
								c-0.4,0.3-0.4,0.8,0,1.2L833.1,455.4z"/>
						</g>
						<g>
							<polygon class="st37" points="686,350.9 686,331.9 805.4,426.7 							"/>
							<polygon class="st34" points="805.4,426.7 686,342 686,309.6 							"/>
							<polygon class="st40" points="805.4,426.7 791.1,424.5 793.3,418.2 							"/>
						</g>
					</g>
				</g>
			</g>
			<g>
				<path class="st28" d="M725.5,455.3c-30.7-38.5-38-85.9-39.3-96.3l-0.2-2c0-0.1,0-0.1,0-0.1l0,0l0,0c0,0,0,0.1,0,0.3l-0.2,1.5
					c-1.2,9.8-8.4,57.8-39.4,96.6L725.5,455.3z"/>
				<path class="st40" d="M686,356.9c0,0,4.3,57.4,39.6,98.4c0,0,13.5-3.9,20.1-12.5C745.6,442.8,703.7,412.1,686,356.9z"/>
				<path class="st35" d="M686,356.9c0,0-4.3,57.4-39.6,98.4c0,0-13.5-3.9-20.1-12.5C626.3,442.8,668.2,412.1,686,356.9z"/>
			</g>
		</g>
	</g>
</g>
<g id="Cloud2_1_">
	<g id="Cloud2">
		<path class="st41" d="M214.2,13.8c-2.4,1.6-4.2,4.4-3.6,7.3c-2-0.3-4,0.2-5.7,1.3c-4.2,2.8-4.9,9.5-1.4,13.2
			c3.5,3.6,10.3,3.1,13.2-1c0.8,4.4,4.4,8.6,7.9,10.2c4.7,2.1,11.8,1.1,14.5-1c1.3,2.8,4.5,4.6,7.6,4.3c3.1-0.3,5.9-2.7,6.6-5.7
			c3.4,1.3,7.4,0.1,10.1-2.4c2.7-2.4,4.3-5.9,5.3-9.4c1.1-3.8,1.4-7.6-1.1-10.9c-2.1-2.8-6.2-5.1-9.7-5.6c-3.6-0.5-7.2,0.7-10.5,2
			c-2.3-3.9-6.4-6.6-10.9-7.1c-4.5-0.5-9.2,1.5-11.8,5.2c-2.4-1.9-5.8-2.4-8.7-1.4C215.5,13.1,214.8,13.4,214.2,13.8z"/>
		<path class="st42" d="M216.7,34.6c0.8,4.4,4.4,8.6,7.9,10.2c4.7,2.1,11.8,1.1,14.5-1c1.3,2.8,4.5,4.6,7.6,4.3
			c3.1-0.3,5.9-2.7,6.6-5.7c3.4,1.3,7.4,0.1,10.1-2.4c2.1-1.9,3.6-4.5,4.6-7.1c-4.2,5-15,7.5-20.4,1.7c-1.9,1.6-5.8,2.5-8.2,0.6
			c1.4,0,2.7-0.4,3.9-1c1.2-0.7,2.2-1.7,2.8-2.9c-1.1,0.8-2.2,1.4-3.3,1.8c-1.1,0.4-2.3,0.6-3.5,0.6c-1.2,0-2.4-0.2-3.5-0.7
			c-1.1-0.4-2.2-1-3.3-1.8c0.6,1.2,1.6,2.2,2.8,2.9c0.9,0.5,1.9,0.9,3,1c-0.8,2.1-4.4,4-8.8,3.8c-6-0.3-9-5.9-5.7-7.1
			c0.9-0.3,1.9-0.6,2.7-1.1c1.4-0.8,2.7-2,3.5-3.4c-1.3,1-2.6,1.8-4.1,2.4c-1.4,0.6-2.9,1-4.4,1.1c-1.5,0.1-3,0-4.5-0.3
			c-1.5-0.3-3-0.9-4.4-1.6c1.1,1.2,2.5,2.1,4.1,2.7c0,0,0,0,0.1,0c-3.4,4-10.2,6.2-14.4,2.9c0.3,0.4,0.6,0.9,1,1.2
			C207,39.3,213.8,38.7,216.7,34.6z"/>
		<path class="st1" d="M212.4,22.6c1.3-0.9,2.7-1.4,4.1-1.8c1.4-0.4,2.9-0.6,4.3-0.6c1.4,0,2.9,0,4.3,0.3c1.4,0.3,2.9,0.7,4.3,1.4
			c-1-1.3-2.4-2.3-3.9-2.8c-0.1,0-0.2-0.1-0.4-0.1c-1-2,3.5-3.8,10.2-3.4c6.7,0.4,9.8,3.5,9.4,5.7c-1.1,0.6-2.1,1.4-2.8,2.5
			c1.4-0.7,2.8-1.1,4.2-1.5c1.4-0.3,2.8-0.5,4.2-0.5c1.4,0,2.8,0,4.2,0.3c1.4,0.3,2.8,0.8,4.2,1.4c-0.7-1.1-1.7-1.9-2.9-2.5
			c-0.6-2.9,5-5.1,9.5-1c2,1.8,3.8,4.4,3.9,8.4c0.5-2.9,0.3-5.8-1.7-8.4c-2.1-2.8-6.2-5.1-9.7-5.6c-3.6-0.5-7.2,0.7-10.5,2
			c-2.3-3.9-6.4-6.6-10.9-7.1c-4.5-0.5-9.2,1.5-11.8,5.2c-2.4-1.9-5.8-2.4-8.7-1.4c-0.7,0.2-1.3,0.6-1.9,1c-2.4,1.6-4.2,4.4-3.6,7.3
			c-2-0.3-4,0.2-5.7,1.3c-2.2,1.5-3.4,4-3.6,6.6C203.2,24.4,208.5,21.9,212.4,22.6z"/>
	</g>
</g>
<g id="Cloud5_1_">
	<g id="Cloud5">
		<path class="st41" d="M803.1,13.2c9.2-0.8,17.6,4.1,17.5,14.1c3.1-1.4,6.6-2.1,9.9-1.2s6.2,3.5,6.8,6.8c1.8-1.2,4.5-1.6,6.3-1.1
			c2.5,0.6,3.4,2.6,3.4,5c0.1,2-0.8,4.3-2,5.9c-1.1,1.5-2.4,3-4,4c-1.5,0.9-3.9,1.7-5.7,1.2c-0.8-0.2-3-1.2-3.5-3.4
			c-0.7,2.5-2.5,4.2-4.7,5.1c-2.2,0.8-5.2-0.2-5.7-2.5c-4.8,4.3-11.7,6.3-18.1,5.2c-2.5-0.4-4.8-2.5-5.5-4.7
			c-3.4,1.9-6.9,3.8-10.7,4.5s-8.1,0-10.9-2.7c-4.2-4.2-6.2-10.7-2.9-16c3.2-5.1,9.6-5.9,14.6-4.9c-0.1-1.8-0.1-3.6,0.3-5.3
			c0.8-3.4,3.5-6,6.5-7.7C797.2,14.3,800.1,13.5,803.1,13.2z"/>
		<path class="st42" d="M834.2,42.2c0-1,0.4-2.4,1-3.5c-1.8,0.9-3.6,1.7-5.4,2.2c-1.8,0.5-3.7,0.7-5.6,0.6c-1.9-0.1-3.7-0.6-5.4-1.3
			c-1.7-0.8-3.3-1.8-4.9-3.1c1,1.8,2.5,3.3,4.2,4.3c1,0.6,2.2,1.1,3.4,1.4c-0.5,3.2-6.2,5.5-10.5,5.5c-3.9,0-6.7-2-8.4-4.1
			c-3.2,2.5-8.2,1.9-10.9-0.9c1.9,0,3.7-0.3,5.4-1c1.9-0.8,3.6-2,5-3.5c-1.8,0.9-3.6,1.7-5.4,2.2c-1.8,0.5-3.7,0.7-5.6,0.6
			c-1.9-0.1-3.7-0.6-5.4-1.3c-1.7-0.8-3.3-1.8-4.9-3.1c1,1.8,2.5,3.3,4.2,4.3c1.4,0.9,3,1.4,4.7,1.7c-3.8,6.5-13.6,6.6-17.6-0.4
			c0.7,2.5,2.2,4.9,4.1,6.9c2.8,2.8,7.1,3.4,10.9,2.7s7.3-2.6,10.7-4.5c0.7,2.2,3.1,4.3,5.5,4.7c6.4,1.1,13.2-0.9,18.1-5.2
			c0.5,2.3,3.5,3.4,5.7,2.5c2.2-0.8,4-2.6,4.7-5.1c0.4,2.2,2.6,3.2,3.5,3.4c1.8,0.5,4.2-0.3,5.7-1.2c1.6-1,2.8-2.5,4-4
			c0.5-0.7,0.9-1.4,1.3-2.2C842,46.4,834,47.3,834.2,42.2z"/>
		<path class="st1" d="M830.5,26.2c-3.3-0.9-6.8-0.2-9.9,1.2c0.1-10-8.2-15-17.5-14.1c-3,0.3-6,1.1-8.4,2.4c-3,1.6-5.7,4.3-6.5,7.7
			c-0.4,1.7-0.4,3.4-0.3,5.1c-0.2,0-0.4,0.1-0.5,0.1c-4.9-0.8-11,0.1-14,5c-0.2,0.3-0.4,0.6-0.5,0.9c2.9-3.7,8.4-5.4,9.1-3.2
			c-0.4,0.4-0.7,0.8-1,1.3c1.8-0.7,3.4-0.9,5.1-1.1c1.7-0.2,3.4-0.3,5-0.4c1.7-0.1,3.4,0,5,0.1c1.7,0.1,3.4,0.3,5.2,0.7
			c-1.2-1.5-3-2.4-4.8-3c-1-0.3-2.1-0.5-3.1-0.6c2.8-2.1,6.1-4,13.5-4.1c5.2-0.1,9.5,1.4,11.5,3.8c-1.9,1-3,2-4.4,3.8
			c5.1-3.9,12.2-3.2,14.6-2.3c2.4,0.9,4.8,2.6,5,5.2c1.2-1,3.2-0.5,3.8,0.9c4.1-3.6,9.1-2,9.6,1.8c0-0.1,0-0.2,0-0.4
			c-0.1-2.3-1-4.3-3.4-5c-1.8-0.5-4.5-0.1-6.3,1.1C836.7,29.7,833.8,27,830.5,26.2z"/>
	</g>
</g>
<g id="Background_Stars">
	<g id="Stars">
		<polygon class="st43" points="927.8,41.3 929.5,47.5 935.7,49.2 929.5,50.8 927.8,57 926.2,50.8 920,49.2 926.2,47.5 		"/>
		<polygon class="st43" points="613.6,41.3 615.3,47.5 621.5,49.2 615.3,50.8 613.6,57 612,50.8 605.8,49.2 612,47.5 		"/>
		<polygon class="st43" points="1029.2,80.6 1030.5,84.2 1034,85.5 1030.5,86.7 1029.2,90.3 1027.9,86.7 1024.3,85.5 1027.9,84.2
			"/>
		<polygon class="st43" points="906.3,55.4 907.6,59 911.2,60.3 907.6,61.5 906.3,65.1 905,61.5 901.5,60.3 905,59 		"/>
		<polygon class="st43" points="504.2,71.9 506,76.9 511,78.7 506,80.5 504.2,85.5 502.4,80.5 497.5,78.7 502.4,76.9 		"/>
		<polygon class="st43" points="952,102.7 953.8,107.7 958.8,109.4 953.8,111.2 952,116.2 950.3,111.2 945.3,109.4 950.3,107.7
			"/>
		<polygon class="st43" points="343.1,89.1 344.9,94.1 349.9,95.9 344.9,97.6 343.1,102.6 341.3,97.6 336.3,95.9 341.3,94.1 		"/>
		<polygon class="st43" points="420.4,43.7 421.8,47.7 425.8,49.2 421.8,50.6 420.4,54.6 419,50.6 415,49.2 419,47.7 		"/>
		<polygon class="st43" points="787.8,67.8 789.3,71.8 793.3,73.2 789.3,74.7 787.8,78.7 786.4,74.7 782.4,73.2 786.4,71.8 		"/>
		<polygon class="st43" points="580.7,69.3 581.8,72.2 584.7,73.2 581.8,74.3 580.7,77.2 579.7,74.3 576.8,73.2 579.7,72.2 		"/>
		<polygon class="st43" points="821.7,80.2 822.7,83.1 825.7,84.2 822.7,85.2 821.7,88.2 820.6,85.2 817.7,84.2 820.6,83.1 		"/>
		<polygon class="st43" points="523,87.9 524.1,90.8 527,91.9 524.1,92.9 523,95.9 522,92.9 519.1,91.9 522,90.8 		"/>
	</g>
</g>
<g id="Moon_1_">
	<g id="Moon">
		<circle class="st44" cx="306.3" cy="77.4" r="70.9"/>
		<circle class="st44" cx="306.3" cy="77.4" r="70.9"/>
		<ellipse class="st45" cx="323.6" cy="82.7" rx="15.1" ry="15.2"/>
		<ellipse class="st45" cx="296.8" cy="59.6" rx="14.8" ry="14.7"/>
		<ellipse class="st45" cx="345.3" cy="42.1" rx="14.8" ry="14.8"/>
		<circle class="st46" cx="324.4" cy="83.4" r="14.5"/>
		<circle class="st46" cx="297.7" cy="60.3" r="14.3"/>
		<circle class="st46" cx="345.7" cy="42.9" r="14.4"/>
		<path class="st47" d="M325.8,70.3c3.7,0,7,1.3,9.5,3.6c-2.7-3.1-6.6-5-11-5c-8,0-14.5,6.5-14.5,14.5c0,4.4,1.9,8.3,5,11
			c-2.2-2.6-3.6-5.9-3.6-9.5C311.3,76.8,317.8,70.3,325.8,70.3z"/>
		<path class="st47" d="M299.1,47.4c3.6,0,6.9,1.3,9.4,3.5c-2.6-3-6.5-4.9-10.8-4.9c-7.9,0-14.3,6.4-14.3,14.3
			c0,4.3,1.9,8.2,4.9,10.8c-2.2-2.5-3.5-5.8-3.5-9.4C284.8,53.8,291.2,47.4,299.1,47.4z"/>
		<path class="st47" d="M347.2,29.9c3.6,0,6.9,1.3,9.5,3.5c-2.6-3-6.5-5-10.9-5c-8,0-14.4,6.5-14.4,14.4c0,4.3,1.9,8.2,5,10.9
			c-2.2-2.5-3.5-5.8-3.5-9.5C332.8,36.4,339.2,29.9,347.2,29.9z"/>
		<ellipse class="st45" cx="315.4" cy="35.4" rx="9.5" ry="9.2"/>
		<ellipse class="st45" cx="283.7" cy="114.3" rx="10.2" ry="10.2"/>
		<ellipse class="st45" cx="311.6" cy="126.3" rx="9.2" ry="9"/>
		<ellipse class="st45" cx="283.3" cy="33.3" rx="6.9" ry="7.1"/>
		<circle class="st46" cx="315.7" cy="35.6" r="9.2"/>
		<circle class="st46" cx="284.3" cy="115" r="10.4"/>
		<circle class="st46" cx="312" cy="126.3" r="9"/>
		<circle class="st46" cx="284" cy="33.8" r="7.2"/>
		<path class="st47" d="M316.6,27.3c2.3,0,4.4,0.9,6,2.2c-1.7-2-4.2-3.2-7-3.2c-5.1,0-9.2,4.1-9.2,9.2c0,2.8,1.2,5.3,3.2,7
			c-1.4-1.6-2.2-3.7-2.2-6C307.4,31.5,311.5,27.3,316.6,27.3z"/>
		<path class="st47" d="M285.3,105.5c2.6,0,5,1,6.9,2.6c-1.9-2.2-4.7-3.5-7.8-3.5c-5.7,0-10.4,4.7-10.4,10.4c0,3.1,1.4,5.9,3.5,7.8
			c-1.6-1.8-2.6-4.2-2.6-6.9C274.9,110.2,279.5,105.5,285.3,105.5z"/>
		<path class="st47" d="M312.9,118.3c2.2,0,4.3,0.8,5.9,2.2c-1.6-1.9-4.1-3.1-6.8-3.1c-5,0-9,4-9,9c0,2.7,1.2,5.2,3.1,6.8
			c-1.4-1.6-2.2-3.6-2.2-5.9C303.9,122.3,308,118.3,312.9,118.3z"/>
		<path class="st47" d="M279.4,39.4c-1-1.2-1.7-2.9-1.7-4.6c0-4,3.2-7.2,7.2-7.2c1.7,0,3.4,0.6,4.6,1.7c-1.3-1.6-3.3-2.6-5.5-2.6
			c-4,0-7.2,3.2-7.2,7.2C276.8,36.1,277.8,38.1,279.4,39.4z"/>

			<ellipse transform="matrix(0.9037 -0.4281 0.4281 0.9037 -4.4754 166.2737)" class="st46" cx="367.5" cy="93.1" rx="4.9" ry="4.9"/>

			<ellipse transform="matrix(0.6118 -0.791 0.791 0.6118 46.5227 318.9211)" class="st46" cx="348.2" cy="112.1" rx="5.7" ry="5.7"/>

			<ellipse transform="matrix(0.2159 -0.9764 0.9764 0.2159 135.2206 342.5526)" class="st46" cx="280.9" cy="87.1" rx="4.1" ry="4.1"/>

			<ellipse transform="matrix(0.157 -0.9876 0.9876 0.157 162.9889 304.3656)" class="st46" cx="259.8" cy="56.7" rx="4.6" ry="4.6"/>
		<circle class="st46" cx="260.2" cy="94.7" r="5"/>
		<path class="st47" d="M367.9,88.7c1.2,0,2.3,0.5,3.2,1.2c-0.9-1-2.2-1.7-3.7-1.7c-2.7,0-4.9,2.2-4.9,4.9c0,1.5,0.7,2.8,1.7,3.7
			c-0.7-0.9-1.2-2-1.2-3.2C363.1,90.9,365.3,88.7,367.9,88.7z"/>
		<path class="st47" d="M348.7,106.8c1.5,0,2.8,0.6,3.8,1.5c-1.1-1.2-2.6-1.9-4.3-1.9c-3.2,0-5.7,2.6-5.7,5.7c0,1.7,0.7,3.2,1.9,4.3
			c-0.9-1-1.5-2.3-1.5-3.8C342.9,109.4,345.5,106.8,348.7,106.8z"/>
		<path class="st47" d="M281.4,83.4c1,0,1.9,0.4,2.7,1c-0.8-0.9-1.9-1.5-3.1-1.5c-2.3,0-4.1,1.8-4.1,4.1c0,1.3,0.6,2.4,1.5,3.1
			c-0.6-0.7-1-1.6-1-2.7C277.3,85.3,279.1,83.4,281.4,83.4z"/>
		<path class="st47" d="M256.8,60.2c-0.7-0.8-1.1-1.8-1.1-3c0-2.5,2-4.6,4.6-4.6c1.1,0,2.2,0.4,3,1.1c-0.8-1-2.1-1.6-3.5-1.6
			c-2.5,0-4.6,2-4.6,4.6C255.2,58.1,255.8,59.3,256.8,60.2z"/>
		<path class="st47" d="M260.7,90.1c1.3,0,2.4,0.5,3.3,1.3c-0.9-1.1-2.3-1.7-3.8-1.7c-2.8,0-5,2.3-5,5c0,1.5,0.7,2.9,1.7,3.8
			c-0.8-0.9-1.3-2-1.3-3.3C255.7,92.4,257.9,90.1,260.7,90.1z"/>
		<path class="st46" d="M338.5,14.3c19.6,12.3,32.7,34.1,32.7,59c0,38.4-31.1,69.5-69.5,69.5c-22.2,0-41.9-10.4-54.6-26.5
			c12.7,19.3,34.5,32.1,59.3,32.1c39.1,0,70.9-31.7,70.9-70.9C377.2,49.9,361.4,26,338.5,14.3z"/>
	</g>
</g>
<g id="Campire">
	<g id="CampFire">
		<path class="st48" d="M737.2,490.3c0,2.4-22.9,4.4-51.2,4.4s-51.2-2-51.2-4.4c0-2.4,22.9-4.4,51.2-4.4S737.2,487.8,737.2,490.3z"
			/>
		<g>
			<g>
				<g>
					<path class="st28" d="M709.2,490.7l0-6.7h-34.2c-3.2,0-5.8,2.8-5.8,6.7H709.2z"/>
					<path class="st49" d="M715,490.7c-0.2-3.7-2.7-6.7-5.8-6.7c-3.1,0-5.6,3-5.8,6.7H715z"/>
				</g>
				<g>
					<path class="st28" d="M703,484l0-6.7h-34.2c-3.2,0-5.8,2.8-5.8,6.7H703z"/>
					<path class="st49" d="M708.8,484c-0.2-3.7-2.7-6.7-5.8-6.7c-3.1,0-5.6,3-5.8,6.7H708.8z"/>
				</g>
				<g>
					<path class="st28" d="M696.8,490.7l0-6.7h-34.2c-3.2,0-5.8,2.8-5.8,6.7H696.8z"/>
					<path class="st49" d="M702.6,490.7c-0.2-3.7-2.7-6.7-5.8-6.7c-3.1,0-5.6,3-5.8,6.7H702.6z"/>
				</g>
			</g>
			<g>
				<path class="st50" d="M682.1,467.9c0,0-0.8,7-0.6,7.7c0.3,0.7,4.2,4,4.2,4s-2.7-4.5-2.8-5.4
					C682.8,473.2,682.1,467.9,682.1,467.9z"/>
				<g>
					<path class="st51" d="M709.3,459.2c0.3-3.3-9.9-17.5-9.9-19c0-1.6,1.2-7.2,1.2-7.2c-1.5,2.6-3.7,5.5-3.8,7.1
						c-0.1,1.1-0.1,9.3-0.1,9.3s-3.1-1.2-3.4-2c-0.3-0.8,1.1-12.4,1.1-13.5c0-1.2-3-7.4-3-7.4s0.6,5.8,0.2,7.1c-0.4,1.2-4,6.2-4,6.2
						c-0.1-0.3-7.1-10.7-7.2-11.5c-0.2-1,2.7-12.1,2.7-12.1c-2.9,4-6.1,10.6-6.2,12.5s1.9,13.7,1.5,15.3s-8,8.6-8,8.6
						s3.3-7.3,3.5-8.3c0.3-1.9-1.9-10-1.9-10c0,2.6-0.2,6.9-1,8.1c-0.8,1.2-9.9,10.3-9.9,14.8c0,6.4,18.7,20.6,18.7,20.6
						s16.6-1.5,17.2-1.8C697.7,475.5,709,462.5,709.3,459.2z"/>
					<path class="st51" d="M709.5,445.7c-0.2-0.4,3.2,14.7,2.8,16.5s-8.9,9.1-8.9,9.1s10.7-5.9,12-7.7
						C716.7,461.8,712.7,450.8,709.5,445.7z"/>
					<path class="st51" d="M655.8,453.5c0,0,1.7,12.1,2.8,13.2c1.1,1.1,12,4.5,12,4.5s-9-4.9-9.4-5.9
						C660.8,464.3,655.8,453.5,655.8,453.5z"/>
					<path class="st52" d="M695.1,476.3c0,0,6.6-6,6.9-12.5c0.3-6.6-11.6-20.4-12.3-22.3c-0.7-1.9-0.1-9.8-0.1-10.8
						c0,0-4.4,9.2-4.4,10.7s5,15.1,4.7,15.8c-0.3,0.7-4,4.4-4.8,4.2c-0.9-0.2-1.9-5.2-2-5.9c-0.1-0.7,1.8-6.6,1.8-7.2
						c0-0.6-2.4-5.9-2.4-5.9l-0.1,5.6c0,0-8.7,11-9,13c-0.4,2.1,8.4,17.4,8.4,17.4L695.1,476.3z"/>
					<path class="st51" d="M691.6,418.1c0,0,0-2.5-0.2-6.9C691.4,411.2,695.3,412.9,691.6,418.1z"/>
					<path class="st51" d="M687.9,420.5l0.5,7.3c0,0,1.9-3.3,1.9-4.5C690.4,422.2,687.9,420.5,687.9,420.5z"/>
					<path class="st51" d="M674.8,423.2l-0.5,6.6c0,0-1.2-2.5-1.2-3.6C673.1,425.1,674.8,423.2,674.8,423.2z"/>
					<path class="st51" d="M687,404.1c0,0,0.7,3.2,0.7,4.1c0,0.9-1.2,2.5-1.2,2.5s-1.2-2.5-1.2-3.6C685.3,406.1,687,404.1,687,404.1
						z"/>
					<path class="st51" d="M704.1,430.1c0,0-2.3,5.5-2.2,7.2c0.1,1.7,3,7.2,3,7.2s-1.4-6.3-1.5-7.6
						C703.4,435.7,704.1,430.1,704.1,430.1z"/>
					<path class="st51" d="M665.2,442.5c0-1.1,0.8-5.7,0.8-5.7s1.4,2,1.4,2.8c0,0.8-1.2,5.7-1.2,5.7S665.2,443.6,665.2,442.5z"/>
					<path class="st51" d="M696.8,433.6c0,0,1.1-3.7,1.1-5s-2.3-6.7-2.3-6.7s4.2,6.2,4.2,7.1C699.8,429.8,696.8,433.6,696.8,433.6z"
						/>
					<path class="st50" d="M688.7,478.7c0,0-5.3-7.4-5.3-8.1c0-0.8,3.5-5.3,3.7-5.2c0.2,0.2-0.5,3.6-0.4,4.2s2.9,1.9,3.5,1.8
						c0.6-0.2,3.8-6.5,3.8-7.5c0-1-2.5-4.3-2.4-4.7s4.7,3.7,4.7,4.6s-1.5,10.8-2,11.4C693.8,475.8,688.7,478.7,688.7,478.7z"/>
					<path class="st51" d="M684.2,418.1c0,0-1.9,8-1.8,8.9c0.1,0.9,2.6,4.4,2.6,4.4s-0.9-4-0.9-5.2
						C683.9,425.1,684.2,418.1,684.2,418.1z"/>
					<path class="st52" d="M672.9,465.3c0,0-3.2-5.3-2.9-6c0.2-0.8,5-6.7,5-6.7s-2.7,7-2.9,7.7C672,460.8,672.9,465.3,672.9,465.3z"
						/>
					<path class="st52" d="M686.7,449.7l1.9,6.1c0,0-2.4-2-2.6-2.9C685.8,452.1,686.7,449.7,686.7,449.7z"/>
					<path class="st52" d="M684,434c0,0,1,2.8,0.7,3.7c-0.3,0.9-1.7,2.1-1.7,2.1L684,434z"/>
					<path class="st50" d="M689.5,461.4c0,0-1.9,6-1.7,6.5c0.2,0.6,2.4,0.9,2.4,0.9s-0.8-1.2-0.9-2.1
						C689.1,465.9,689.5,461.4,689.5,461.4z"/>
					<path class="st52" d="M697.3,449.1l4.4,6.1c0,0-0.7-3.7-1.3-4.4C699.9,450.2,697.3,449.1,697.3,449.1z"/>
					<path class="st50" d="M686,463.9c0,0,2.1-1.9,2.3-2.5c0.2-0.6-1.9-6.4-1.9-6.4s0.6,5.4,0.4,6S686,463.9,686,463.9z"/>
					<path class="st50" d="M682.6,466.2l-1.3-7.3c0,0,2.2,3.4,2.4,4C683.9,463.4,682.6,466.2,682.6,466.2z"/>
				</g>
			</g>
		</g>
	</g>
</g>
<g id="Cloud1">
	<g id="Cloud1_1_">
		<path class="st41" d="M258.9,119.3c0.1,0.2,0.2,0.5,0.2,0.8c3.9-2.2,10.1-3.9,14.9-1.9c4,1.7,7.9,7.3,9.4,10.9
			c2,4.7,0.9,10.6-1.8,14.8c-1.9,3-5.2,5.7-8.8,5.1c-0.6,3.5-1.1,6.2-3.9,9c-2.3,2.4-7.5,4.6-10.7,3.7c-1.3,3.4-4.2,6.5-7.9,8.2
			c-4,1.8-10.2,3.2-14.4,2.7c-4-0.5-8-1.3-11.5-3.2c-3.5-1.9-6.5-5-7.6-8.9c-3,3.6-7.5,5.8-12.2,6c-4.9,0.2-9.7-1.8-12.6-5.1
			c-1.9,2.7-7.8,3.7-11.8,2.9c-2.9-0.6-7.2-3.1-7.7-7.5c-5.5,4.8-14.9,3.3-19.3-2.5c-4.4-5.8-3.5-14.7,1.3-20.2
			c3-3.4,7.9-5.6,12-3.9c0.4-5.6,2.2-11.4,6.3-15.2c4.2-3.8,11.2-4.8,15.4-1c6.5-9.3,16.8-16,28.4-15.5c9.8,0.4,19.3,5.9,24.5,14.3
			c1.6-1.4,5.9-2,8.2-1.5C253.5,112.4,257.4,115.3,258.9,119.3z"/>
		<path class="st42" d="M258.3,161.7c3.2,0.9,8.4-1.3,10.7-3.7c2.8-2.8,3.3-5.5,3.9-9c3.5,0.6,6.9-2.1,8.8-5.1
			c0.9-1.4,1.6-2.9,2.1-4.6c-0.9,1.5-2.2,2.8-3.7,3.9c-2.5,0.8-4.9,1.3-7.3,1.5c-2.4,0.2-4.8,0.1-7.1-0.3c-2.3-0.4-4.5-1.3-6.5-2.5
			c-2-1.2-3.8-2.9-5.7-4.8c0.7,2.5,2.2,4.9,4.2,6.8c1.9,1.7,4.4,2.9,6.9,3.5c3.1,3.1,1.3,6.6-1.6,8.7c-7.3,5.4-25.7,6.5-22.6-7.5
			c-5.6,4-11.6-0.8-10.2-3.9c4.4-1.8,8.4-4.6,11.2-8.3c-4.1,2.6-8.4,4.3-12.9,5.4c-4.4,1.1-9,1.6-13.6,1.5
			c-4.5-0.1-9.1-0.7-13.4-2.1c-4.3-1.4-8.4-3.5-11.8-7c0.9,2.3,2.5,4.3,4.3,6c1.9,1.7,4,3.1,6.3,4.2c0.5,0.2,1.5,0.9,1.9,1.5
			c3.2,6.2-2,10.2-13.8,11c-5.7,0.4-10.4-2.1-14.8-5.8c-2.9,3.5-7.5,5.6-12.1,5.3c-3.7-0.2-7.3-2.1-9.8-4.9c0.4,1,1,2,1.6,2.8
			c4.4,5.8,13.8,7.3,19.3,2.5c0.5,4.4,4.8,6.9,7.7,7.5c4,0.8,9.8-0.1,11.8-2.9c2.9,3.2,7.6,5.2,12.6,5.1c4.7-0.1,9.2-2.4,12.2-6
			c1.1,3.8,4.1,6.9,7.6,8.8c3.5,1.9,7.5,2.8,11.5,3.2c4.2,0.5,10.5-0.9,14.4-2.7C254.1,168.2,257,165.1,258.3,161.7z"/>
		<path class="st1" d="M284,130.5c-0.1-0.5-0.3-1-0.5-1.4c-1.6-3.6-5.4-9.2-9.4-10.9c-4.8-2-11-0.3-14.9,1.9
			c-0.1-0.3-0.2-0.5-0.2-0.8c-1.5-4-5.4-6.8-9.5-7.9c-2.2-0.6-6.6,0.1-8.2,1.5c-5.2-8.4-14.6-13.9-24.5-14.3
			c-11.6-0.5-21.9,6.2-28.4,15.5c-4.2-3.8-11.2-2.8-15.4,1c-4.2,3.8-5.9,9.6-6.3,15.2c-4.2-1.7-9.1,0.5-12,3.9
			c-1.7,1.9-2.9,4.3-3.6,6.8c1.9-4,6.1-6.6,10.7-7.3c4-0.6,7.5,0,10.5,3.6c-3.2-6.3-0.1-13.1,4.5-16.8c5.2-4.2,12.2-4.1,16.1,0
			c-1,1-2,2.2-2.8,3.4c3.2-2,6.4-3.6,9.7-4.8c3.3-1.2,6.7-2,10.2-2.4c3.5-0.4,7-0.4,10.5-0.1c3.5,0.3,7.1,0.9,10.8,1.7
			c3.8,1.4,7.7,3.9,10.2,6.6c-1.3-1.7-1.1-3.4,0-5.2c1.1-1.7,3.7-2.3,5.9-1.9c2.7,0.5,4.7,2.4,5.7,4.9c1,2.5,0.8,4.8-0.2,7.7
			c2.9-5.6,9.5-8.8,17.3-8.7C275.3,121.7,281.2,124.2,284,130.5z"/>
	</g>
</g>
<g id="Cloud3">
	<g id="Cloud3_1_">
		<path class="st41" d="M384.3,103.8c-3.3-7.3-11.2-10.8-18.8-9.7c-3.4,0.5-7,1-9.9,2.9c-1.1,0.8-6.3,4.2-6.7,8.7
			c-1.8-2.4-5-3.6-8-3.1c-2.9,0.5-5.5,2.7-6.5,5.6c-2.5-3.1-6.2-5.3-10.2-5.5c-4-0.2-8.1,1.7-10.3,4.9c-1.9,2.8-2.5,6.5-1.4,9.7
			c2.7,8.3,9.2,7.6,15.1,3.4c1.1,3.3,4.5,5.7,8,5.7c3.5,0,6.9-2.5,8-5.8c4,3.3,8.2,6.7,13.3,8c5.1,1.3,11.2-0.3,13.7-4.9
			c4,2.8,9.4,3.4,14,1.6c3.4,2.2,8.2,2.1,11.5-0.3c2.6,6.6,8.8,11.7,15.9,12.8s14.5-1.7,19-7.3c6.8,2,14.8-3,16-10
			c1.6,2.7,6.4,3.7,9.6,2.9c-2.5,1.6-2.1,5.8,0.2,7.7c2.2,2,5.5,2.2,8.5,2.1c4.5-0.3,9.7-1.9,11.5-6.1c1.8,1.3,7.4,0.9,7.9,0.7
			c3.5-0.9,6.9-2.4,9.7-4.7c2.4,1.7,5.7,1.8,8.5,0.9c2.8-0.9,5.3-2.7,7.6-4.4c3.6,4.4,9.9,6.3,15.3,4.8c5.5-1.5,9.8-6.4,10.7-12
			c2.1,1.8,7,0.4,7.7,0.1c2.2-0.9,3.7-2.7,4.6-4.9c1.8-4.6,0-10.4-4.3-12.7c-5.9-3.2-13.1,0.6-18.7,4.3c-0.7-3.2-4.6-4.6-7.3-3.9
			c-1.6-4-5.4-6.9-9.4-8.3c-4.1-1.5-8.9-2.3-12.8-2c-1-5.9-6.3-10.8-12.2-11.4c-5.9-0.6-12,3.1-14.2,8.7c-8.6-2.9-19.8-3.9-25.9,4.1
			c-1.8,2.4-2.9,5.5-2.2,8.4c-3.2-0.3-6.5,1.1-8.6,3.6c-3.9-3.4-9.2-4.8-14.4-4.7c-8.4,0.2-15.6,4.3-22.7,8.3
			C392.4,99.9,387.1,100.6,384.3,103.8z"/>
		<path class="st42" d="M456.6,131.4c2.2,2,5.5,2.2,8.5,2.1c4.5-0.3,9.7-1.9,11.5-6.1c1.8,1.3,7.4,0.9,7.9,0.7
			c3.5-0.9,6.9-2.4,9.7-4.7c2.4,1.7,5.7,1.8,8.5,0.9c2.8-0.9,5.3-2.7,7.6-4.4c3.6,4.4,9.9,6.3,15.3,4.8c5.5-1.5,9.8-6.4,10.7-12
			c2.1,1.8,7,0.4,7.7,0.1c2.2-0.9,3.7-2.7,4.6-4.9c0.5-1.2,0.7-2.4,0.7-3.7c-2,6.8-11.9,7-15.4,4.5c-1.7,2.9-9,6.6-13.4,5.9
			c-1.8-0.3-4.8-1.6-6.5-1.8c-0.9-0.1-3.8,3.7-7.6,5.4c-4.7,2.1-12.5,0.8-8.6-2.5c2.9-1.3,5.4-3.3,6.9-6c-6,4.3-13.5,7.8-22.5,9.4
			c-8.9,1.7-17.1-0.4-10.4-4.1c1.3-0.3,2.6-0.7,3.9-1.2c3.4-1.3,6.5-3.4,8.6-6.2c-3,1.9-6.1,3.1-9.4,3.9c-3.2,0.8-6.5,1.1-9.8,1.1
			c-3.3-0.1-6.6-0.5-9.7-1.5c-3.1-1-6.1-2.6-8.6-5.1l0,0v0l0,0l0,0c2.6,7.6-5.2,10.5-9.6,7.2c1.4,5.1-1.2,12.1-6.5,14.2
			c-5.3,2.1-11.6,1.5-16.5-1.4c-2.3,2.9-6.4,4.2-9.9,3.3c-2.8-0.7-5.2-2.7-6.4-5.3c3.1-0.1,6.1-0.7,8.9-1.8c3.4-1.3,6.5-3.4,8.6-6.2
			c-3,1.9-6.1,3.1-9.4,3.9c-3.2,0.8-6.5,1.1-9.8,1.1c-3.3-0.1-6.6-0.5-9.7-1.5c-3.1-1-6.1-2.6-8.6-5.1c0.6,1.3,1.4,2.6,2.4,3.6
			c-2.7,4.4-9.8,5.9-13.2,2c-2.2,3.8-6.9,6-11.2,5.2c-4.3-0.8-8.2-5.8-6.5-10.7c-1,1-2.1,1.6-3.3,2c-1.2,0.4-2.5,0.6-3.7,0.6
			c-1.2,0-2.5-0.2-3.6-0.7c-1.2-0.5-2.2-1.2-3.2-2.3c0.3,1.4,1.3,2.6,2.5,3.4c0.9,0.6,1.9,0.9,2.9,1.1c-1.2,2.7-4,3.6-7.1,3.7
			c-3.5,0.1-6.9-2.3-8-5.6c-1.5,2.8-4.8,4.6-8,4.2c-2-0.3-3.9-1.4-5.2-3c2.8,7.8,9.1,7.1,15,3c1.1,3.3,4.5,5.7,8,5.7
			c3.5,0,6.9-2.5,8-5.8c4,3.3,8.2,6.7,13.3,8c5.1,1.3,11.2-0.3,13.7-4.9c4,2.8,9.4,3.4,14,1.6c3.4,2.2,8.2,2.1,11.5-0.3
			c2.6,6.6,8.8,11.7,15.9,12.8c7,1.1,14.5-1.7,19-7.3c6.8,2,14.8-3,16-10c1.6,2.7,6.4,3.7,9.6,2.9
			C453.9,125.3,454.4,129.4,456.6,131.4z"/>
		<path class="st1" d="M547.4,98c-0.8-1.2-1.8-2.2-3.1-2.8c-5.9-3.2-13.1,0.6-18.7,4.3c-0.7-3.2-4.6-4.6-7.3-3.9
			c-1.6-4-5.4-6.9-9.4-8.3c-4.1-1.5-8.9-2.3-12.8-2c-1-5.9-6.3-10.8-12.2-11.4c-5.9-0.6-12,3.1-14.2,8.7c-8.6-2.9-19.8-3.9-25.9,4.1
			c-1.8,2.4-2.9,5.5-2.2,8.4c-3.2-0.3-6.5,1.1-8.6,3.6c-3.9-3.4-9.2-4.8-14.4-4.7c-8.4,0.2-15.6,4.3-22.7,8.3
			c-3.5-2.4-8.8-1.7-11.7,1.5c-3.3-7.3-11.2-10.8-18.8-9.7c-3.4,0.5-7,1-9.9,2.9c-1.1,0.8-6.3,4.2-6.7,8.7c-1.8-2.4-5-3.6-8-3.1
			c-2.9,0.5-5.5,2.7-6.5,5.6c-2.5-3.1-6.2-5.3-10.2-5.5c-4-0.2-8.1,1.7-10.3,4.9c-0.8,1.2-1.3,2.5-1.6,3.8c2.6-4.1,7.4-5.3,11.2-5.2
			c4.8,0,9,2.4,11.3,5.7c1.6-4.8,12.4-6.2,15.1-1c-0.1-0.9-0.3-1.7-0.6-2.8c1.4-3.6,5.9-6.3,10.2-6.4c4.6-0.2,9.4,2.5,10.9,6.9
			c1.1-3.3,4.5-5.8,8-5.5c5.5,0.5,2.1,3.5,1.4,5.9c3.4-3.6,15.1-4.8,19.9-0.6c7.1-8.3,26.5-9.2,34.7-0.8c0-2.7,1.1-4.9,3.4-6.3
			c1.9-1.2,5-1.9,7.3-1.2c2.6-2.5,5.6-4.1,8.8-5.2c3.2-1.1,6.6-1.6,10-1.8c3.4-0.2,6.8,0.1,10.2,0.7c3.4,0.7,6.6,1.7,9.8,3.4
			c-2.4-2.7-5.7-4.6-9.2-5.7c-1.8-0.6-3.7-1-5.5-1.2c1.7-2,4.2-3.8,9.5-4.5c5.3-0.8,13.3,1.5,17.2,6.6c6.6-4.4,18.5,1.5,17.6,8.8
			c-0.3,0.1-0.6,0.3-1,0.5c-2,1.1-3.8,2.4-5.3,4.1c2.2-0.7,4.2-1.4,6.2-1.9c2-0.6,4-1,6-1.3c2-0.3,4-0.4,6.1-0.3
			c2.1,0.1,4.2,0.3,6.4,0.6c-1.1-0.8-2.2-1.5-3.5-2C532.6,97.3,542.4,93.6,547.4,98z"/>
	</g>
</g>
<g id="Cloud4_1_">
	<g id="Cloud4">
		<path class="st41" d="M447.5,33.3c-0.5,0.6-1,1.3-1.2,2.2c-0.9,3.3,1.9,6.8,5.3,7.5c-1.8,2.7-3.8,7-1.9,10.1
			c1.9,3,6.3,4.2,9.5,3.3c3.4-0.9,6.2-3.3,8.8-5.6c5.3,7.6,17.6,9.1,24.6,2.9c5.4,4.7,14.5,4.3,19.4-0.9c3.9,3.3,10,3.7,14.3,1
			c7,5.4,22.2,0.7,25.8-3.6c2.1,2.2,11.2,2.2,13.3-1.3c1.7-0.4,3.5,0.1,5.3,0.1c1.8,0,3.8-0.9,4.1-2.6c0.4-1.9-1.6-3.5-3.5-3.6
			c-1.9-0.1-3.6,0.9-5.3,1.9c-0.3-4.9-5.3-9.1-10.2-8.4c0.4-3-3.3-5.8-6.1-4.5c0.7-4.2-1-8.8-4.2-11.5c-3.3-2.8-8-3.7-12-2.4
			c0.7-3.4,1.2-7.2-0.6-10.1c-1-1.6-2.7-2.7-4.4-3.5c-5.9-2.6-13-1.4-18.7,1.8c-4.1,2.3-7.9,6.2-8,10.9c-3-1-9.6-0.1-12.1,1.1
			c-3,1.5-5.8,3.7-7.5,6.6c-2.9-1.6-6.4-2-9.6-1.5c-2.7,0.4-7.9,3.1-10.1,7.7c-3.1-1-6.4-1.2-9.6-0.5
			C450.8,30.8,448.8,31.8,447.5,33.3z"/>
		<path class="st42" d="M467.7,46.9c-0.7,4.7-11.9,9.6-18.1,5.9c0,0,0,0.1,0.1,0.1c1.9,3,6.3,4.2,9.5,3.3c3.4-0.9,6.2-3.3,8.8-5.6
			c5.3,7.6,17.6,9.1,24.6,2.9c5.4,4.7,14.5,4.3,19.4-0.9c3.9,3.3,10,3.7,14.3,1c7,5.4,22.2,0.7,25.8-3.6c2.1,2.2,11.2,2.2,13.3-1.3
			c1.7-0.4,3.5,0.1,5.3,0.1c1.8,0,3.8-0.9,4.1-2.6c0,0,0,0,0,0c-1.2,2-7.6,2.7-10.9-0.4c-2.3,2.8-8.1,3.3-11.3,1.2
			c1-0.2,2.1-0.6,3-1.1c1.4-0.8,2.6-1.8,3.5-3c-1.3,0.8-2.5,1.6-3.9,2.1c-1.2,0.5-2.5,0.8-3.7,0.9c0,0-0.1-0.1-0.1-0.1
			c-0.1,0-0.1,0.1-0.2,0.1c0,0-0.1,0-0.1,0c-1.4,0.1-2.8,0-4.2-0.3c-1.4-0.3-2.8-0.9-4.1-1.6c1,1.1,2.4,2,3.8,2.6
			c0.7,0.3,1.5,0.5,2.3,0.6c-4.8,1.9-12.4,2.2-16.3,1c-2.8-0.8-5.6-1.7-7.5-3.9c-5.2,3.9-19.6,4.2-25.7-1.5
			c6.4-1.2,12-5.3,15.1-10.6c-2.5,2-5.1,3.8-7.8,5.2c-2.7,1.4-5.6,2.3-8.6,2.7c-3,0.4-6,0.4-9-0.3c-3-0.6-5.9-1.8-8.7-3.3
			c2.1,2.4,5,4.3,8.1,5.4c1.4,0.5,2.9,0.8,4.4,1C490.8,53.2,472.8,53.5,467.7,46.9z"/>
		<path class="st42" d="M451.6,42.9c-0.4,0.6-1.2,1.9-1.7,3.2c0.7-1.4,2.3-2.3,3.5-2.7c2.5-0.7,12.5-0.6,17.6-3.5
			c-3.8,1.4-7.4,1-9.1-0.8c-1.4,2.3-3.6,2.8-7.2,2.3c-5.2-0.7-8.6-2.2-8.4-6C445.4,38.7,448.2,42.3,451.6,42.9z"/>
		<path class="st1" d="M463.9,36c-0.7-4.7,4.6-7.8,6.5-8.6c5.1-2.1,9.2-1.3,9.3,1.7l0,0l0,0c2.4-2,5.2-3.1,8-4
			c2.8-0.8,5.7-1.3,8.7-1.5c2.9-0.2,5.9-0.2,8.8,0.1c2.9,0.4,5.8,1,8.7,2.4c-2.1-2.4-5.1-3.8-8.2-4.7c-0.1,0-0.2,0-0.3-0.1
			c-1.3-1-2.1-2.1-1.8-3.1c1.8-5.8,13.8-6.6,18.6-5.9c5.4,0.8,9.1,4.4,8.7,7.7c-1.2,0.3-2.3,0.7-3.3,1.3c-1.7,1-3.2,2.4-3.9,4.2
			c1.6-1,3.2-1.6,4.8-2.1c1.6-0.5,3.2-0.7,4.9-0.8c1.6-0.1,3.3,0,4.9,0.4c1.6,0.3,3.3,0.9,5.1,1.6c1.2,1.2,3.3,3.8,3.7,8.1
			c-3.7,1-6.2,3.8-7.2,5.5c5.3-4.7,14.1-5.1,19.1,2c0.5-1,2.2-1.3,3.9,0c1.3,1,2.7,2.8,3.3,4.9c3.1-1.4,6.4-2.2,8.1-1.1
			c-0.7-0.7-1.7-1.2-2.7-1.2c-1.9-0.1-3.6,0.9-5.3,1.9c-0.3-4.9-5.3-9.1-10.2-8.4c0.4-3-3.3-5.8-6.1-4.5c0.7-4.2-1-8.8-4.2-11.5
			c-3.3-2.8-8-3.7-12-2.4c0.7-3.4,1.2-7.2-0.6-10.1c-1-1.6-2.7-2.7-4.4-3.5c-5.9-2.6-13-1.4-18.7,1.8c-4.1,2.3-7.9,6.2-8,10.9
			c-3-1-9.6-0.1-12.1,1.1c-3,1.5-5.8,3.7-7.5,6.6c-2.9-1.6-6.4-2-9.6-1.5c-2.7,0.4-7.9,3.1-10.1,7.7c-3.1-1-6.4-1.2-9.6-0.5
			c-2,0.4-4,1.4-5.3,2.8C452.4,30,460.4,31.3,463.9,36z"/>
	</g>
</g>
<g id="Cloud6">
	<g id="Cloud8">
		<path class="st53" d="M1181.5,182.3c0.4,2.6,0,5.1-1.8,7.1c-2.7,3.1-8.8,3.1-12.1,1c-0.7-0.4-4.4-2.9-6-6.1
			c-3.6,5.1-9,9.3-15.2,9.9c-6.7,0.7-11.8-3.2-14.5-8.9c-1.6,3.3-5.2,5.6-9.7,5.8c-3.5,0.1-8-1-10-3.9c-1.3,5.3-4.6,9.9-10.2,11.3
			c-5.2,1.4-11.2-0.7-14.4-5c-3.7,7.3-11.2,13-19.4,13.1c-8.2,0.1-16.4-6.6-16.6-14.8c-7.7,2.4-18.1,0-21.7-4.6
			c-5.5,5.9-17,3.7-19.9-3.9c-2.7,0.3-5.5,0.5-8.1-0.4c-2.6-0.9-4.8-3.3-4.6-6c0.2-2.5,2.4-6.3,5.1-8.6c4.6-3.9,10.5-5.1,15.4-1.7
			c-0.7-7.1,3.9-14.4,10.7-16.8c6.7-2.4,14.9,0.5,18.8,6.5c2.7-4.6,8.6-6.9,13.7-5.4c-2.4-3.7-2.1-8.9,0.6-12.4
			c2.7-3.5,7.7-5,11.9-3.7c-5.5-4.2-6.2-13.5-1.3-18.4c4.9-5,14.2-4.4,18.5,1c8-9.3,22.8-12.6,33.2-6.1c10.2,6.5,13.4,22,6.4,31.9
			c4.2-2.2,9.6-1.7,13.3,1.2c3.5,2.7,5.1,7.2,4.9,11.5c1.8-0.4,4.2-0.6,6.2,0c1.8,0.5,3.2,2.2,3.8,4c0.6,1.8,0.6,3.8,0.4,5.7
			c3.8-0.7,6.5,0.4,7.7,1.7c2,2,2.4,4.3,2.6,6.5c3-0.9,6.8,0.6,8.3,1.6C1179.5,176.7,1181,179.5,1181.5,182.3z"/>
		<path class="st54" d="M1161.5,179.3c-1.8,3-8.2,6.7-14.2,4.2c-5.5-2.3-7.9-8.8-5-16c0.6-1,1.1-2,1.5-3c-2.5,3-5.4,5.2-8.6,6.9
			c-3.2,1.7-6.7,2.7-10.2,3.2c-3.5,0.4-7.1,0.3-10.6-0.7c-3.5-0.9-6.8-2.6-9.9-4.9c2.2,3.2,5.4,5.7,9.1,7.2c3.7,1.5,7.8,2,11.8,1.5
			c0.8-0.1,1.6-0.2,2.3-0.4c0.9,2.6-0.8,5.8-5.3,7c-5,1.4-12.9,0.1-16-3.6c-1,3.1-3.5,8.1-12,8.6c-6.2,0.4-13.3-2.7-12.3-9.7
			c4.7-1.2,8.9-4.4,10.9-8.6c-2.2,1.7-4.3,3.1-6.6,4.1c-2.3,1-4.7,1.7-7.1,1.9c-2.4,0.2-4.8,0-7.1-0.9c-2.3-0.8-4.3-2.4-5.9-4.6
			c2.6,11.1-6.7,15.3-12.3,14.2c-5.1-1-9.3-4.2-9.1-8.8c0.1,0,0.2-0.1,0.2-0.1c3.1-1.3,6-3.4,7.9-6.1c-2.8,1.7-5.7,3-8.7,3.8
			c-3,0.8-6.1,1.1-9.1,1c-3.1-0.1-6.1-0.7-9-1.8c-2.9-1.1-5.5-2.7-7.9-5.1c1.2,3.1,3.8,5.6,6.8,7.3c1.5,0.9,3.2,1.5,4.9,1.9
			c2.8,0.7,0.5,5.1-6,5.1c-4.3,0-9.4-2.4-10.4-6.7c-3.1,4.6-14,6.8-16.4,0.8c0,2.5,2.2,4.8,4.6,5.6c2.6,0.9,5.4,0.7,8.1,0.4
			c2.9,7.6,14.4,9.8,19.9,3.9c3.6,4.6,14,7.1,21.7,4.6c0.2,8.2,8.4,14.9,16.6,14.8c8.2-0.1,15.7-5.8,19.4-13.1
			c3.2,4.3,9.2,6.4,14.4,5c5.5-1.4,8.9-6,10.2-11.3c2,2.9,6.5,4,10,3.9c4.5-0.2,8-2.5,9.7-5.8c2.7,5.7,7.7,9.6,14.5,8.9
			c6.2-0.6,11.6-4.8,15.2-9.9c1.6,3.2,5.3,5.6,6,6.1c3.3,2.1,9.3,2.1,12.1-1c1.4-1.6,2-3.5,1.9-5.4
			C1179,191.9,1164.9,187.4,1161.5,179.3z"/>
		<path class="st1" d="M1110.9,132.2c2.9,0.5,5.8,1.4,8.6,2.6c-2.2-2.3-5-3.9-8.1-4.9c-3.1-1-6.4-1.2-9.7-0.8
			c-3.2,0.5-6.4,1.7-9,3.5c-2.7,1.8-4.9,4.2-6.3,7c2.4-2,4.9-3.7,7.5-5c2.6-1.3,5.4-2.2,8.3-2.6C1105,131.7,1108,131.8,1110.9,132.2
			z"/>
		<path class="st1" d="M1177.4,175.2c-1.4-1-5.3-2.5-8.3-1.6c-0.2-2.1-0.6-4.4-2.6-6.5c-1.3-1.3-3.9-2.4-7.7-1.7
			c0.2-1.9,0.2-3.9-0.4-5.7c-0.6-1.8-2-3.5-3.8-4c-2-0.5-4.4-0.4-6.2,0c0.2-4.3-1.4-8.8-4.9-11.5c-3.7-2.9-9.1-3.4-13.3-1.2
			c6.9-10,3.8-25.4-6.4-31.9c-10.3-6.6-25.1-3.2-33.2,6.1c-4.3-5.5-13.6-6-18.5-1c-4.9,5-4.2,14.2,1.3,18.4
			c-4.2-1.3-9.2,0.2-11.9,3.7c-2.7,3.5-2.9,8.7-0.6,12.4c-5.1-1.5-11,0.9-13.7,5.4c-3.9-6-12.1-8.8-18.8-6.5
			c-6.7,2.4-11.4,9.7-10.7,16.8c-5-3.4-10.8-2.2-15.4,1.7c-1.2,1-2.3,2.3-3.1,3.6c5-4.6,11.7-6.5,18.7-4.9c2.2-7,8.1-10.8,14.3-11.5
			c6.2-0.7,12.7,1.7,16.9,6.3c0.9-2.8,3.7-5.5,7.1-6.4c2.5-0.7,6.3-0.1,8.5,1.3c-0.9,1.1-1.7,2.3-2.2,3.6c2.5-1.8,5-3.3,7.6-4.4
			c2.6-1.1,5.3-1.9,8-2.3c2.7-0.4,5.5-0.6,8.3-0.3c2.8,0.2,5.6,0.8,8.5,1.8c-2-2.4-4.9-4-7.9-4.9c-2.2-0.6-4.5-0.9-6.7-0.8
			c-4.6-0.9-9.4-0.5-13.7,1.2c0-6.8,6.5-12.9,13.3-12.6c-3.1-4.1-2.4-10.6,1.6-13.9c3.9-3.3,10.5-2.9,14,0.9
			c3.9-5.9,11.4-9.1,18.3-7.9c6.9,1.2,12.9,6.8,14.5,13.7c1.2,5.1-0.4,10.3-3.7,14.4c-1.4,0.1-2.8,0.3-4.2,0.6
			c-3.3,0.7-6.5,2-9.3,3.9c-2.8,1.9-5.3,4.4-6.6,7.5c2.6-2,5.3-3.5,8.1-4.7c2.8-1.2,5.7-2.1,8.7-2.7c3-0.6,6-1.1,9.1-1.3
			c3.1-0.2,6.2-0.1,9.5,0.3c3.1,0.8,7.4,6,5.7,11c2.1-2.1,4.8-2.9,7.2-1.1c2.4,1.7,4.9,7.1,1,12.6c3.2-0.8,7-3.6,10.1-2.4
			c2.7,1,3.9,3.9,4.3,6.3c5.4-1.4,10,0.9,12.8,4.9C1180.1,178,1178.9,176.2,1177.4,175.2z"/>
	</g>
</g>
<g id="Cloud8_1_">
	<g id="Cloud8_2_">
		<path class="st53" d="M641.6,114c-2.2,2-4.1,4.4-4.9,6.5c-1.9,5.1,2.9,10.3,7.6,11.1c2.7,0.4,5.4-0.1,7.9-1c0.4,2.6,2,6,4.1,7.3
			c2.8,1.7,8.1,2.4,12.4,1.6c0.4,6.9,11.9,14.9,23.5,14.2c5.9,4.9,15.7,4.7,20.8,3.8c5.4-1,11.3-4.2,14.1-8.5
			c2.4,1.5,5.5,1.5,8.2,0.7c2.7-0.9,5.1-2.5,7.4-4.1c4.9,5.8,13.9,6.6,20.9,3.8c7-2.8,14-8.5,17.5-14.1c6.4,2,16.7,0.9,20.4-1.9
			c3.3,2.1,11.4,2.9,14.5,0.1c0.9-0.8,1.5-1.9,2-3c0.7-1.6,1.1-3.3,1-5c-0.3-6.1-4.8-7.3-10.1-6.9c0.9-2.6-1.3-5.6-4-6.3
			c-2.7-0.7-5.6,0.3-8,1.7c-2-2.7-4.9-4.8-8.1-5.5c-3.3-0.7-7,0.4-9,3.1c-2.7-3.5-7.7-6.6-12.6-6.8c-3.8-0.2-6.6,0.9-10,2.8
			c-0.6-3.8-3.3-9.5-6.1-12.2c-1.4-1.4-3.3-2.5-5.2-3c-0.5-0.1-3.3-0.7-5.6,0c0.1-4.7-1.3-9.5-4.6-12.8c-4.1-4.1-12-6.5-17.3-3.9
			c0.8-6.2-3.3-12.8-9.8-13.5c-4.2-0.4-7.4,2.4-11.4,3c-4.1,0.6-7.9,2.8-10.6,6c-3.1,3.7-4.6,8.5-4.7,13.3
			c-4.1-0.5-8.3,1.8-10.7,5.2c-2.4,3.4-3.2,7.7-3.1,11.9c-4.2,2.3-7.5,6.3-8.7,11c-3.5-2.6-8.2-3.3-12.3-1.8
			C645.2,111.1,643.3,112.4,641.6,114z"/>
		<path class="st54" d="M811.4,132.8c-3.6,0.4-7.3-1.1-9.6-3.9c-5.7,2.4-12.8,1-17.2-3.4c-7.5,7.9-20.7,9.5-29.9,3.6
			c-2.1,5.6-8.5,9.2-14.4,8.1c-5.1-1-7.4-1.6-7.7-5.7c3.2-0.7,6.2-1.8,9-3.4c3.9-2.3,7.4-5.6,9.3-9.7c-3.3,3-6.9,5.2-10.7,6.7
			c-3.8,1.6-7.9,2.5-12,2.8c-4.1,0.3-8.2-0.1-12.1-1.3c-3.9-1.2-7.6-3.2-11.1-6c5.7,10.6,4.8,31.7-15.3,23.5
			c-6.5-2.6-8.6-13.1-4.6-19.8c-3.8,4.7-9,7.5-15,7c-4.8-0.4-9.8-2.4-11.4-7c-4.3,4.1-17.2,7.7-21.7,1.6c1.3,2.9,4.3,5.1,7.3,5.6
			c2.7,0.4,5.4-0.1,7.9-1c0.4,2.6,2,6,4.1,7.3c2.8,1.7,8.1,2.4,12.4,1.6c0.4,6.9,11.9,14.9,23.5,14.2c5.9,4.9,15.7,4.7,20.8,3.8
			c5.4-1,11.3-4.2,14.1-8.5c2.4,1.5,5.5,1.5,8.2,0.7c2.7-0.9,5.1-2.5,7.4-4.1c4.9,5.8,13.9,6.6,20.9,3.8c7-2.8,14-8.5,17.5-14.1
			c6.4,2,16.7,0.9,20.4-1.9c3.3,2.1,11.4,2.9,14.5,0.1c0.9-0.8,1.5-1.9,2-3c0.2-0.5,0.4-1.1,0.6-1.6
			C816.8,130.9,814.2,132.4,811.4,132.8z"/>
		<path class="st54" d="M684.9,93.4c1,2.3,1.9,4,3.9,5.5c-5.7,6.1-21.1,8.5-20.9,2.4c-3.9,2.1-7,5.8-8.4,10.1
			c5.1-4.9,12.9-3.6,19.4-1c2.2-4.3,9.5-7.1,11.5-7.2c8.7-0.3,16.2-1.1,20.8-7.7C702.9,101,689,99.9,684.9,93.4z"/>
		<path class="st1" d="M659.5,111.4L659.5,111.4c-0.1,0.3-0.2,0.6-0.3,0.9c2.4-0.9,4.7-1.5,7-1.7c2.3-0.2,4.6-0.2,6.9,0.1
			c2.3,0.3,4.6,0.8,6.8,1.5c2.3,0.7,4.4,1.6,6.7,2.8c-2-1.5-4.9-3.4-7.7-4.7C672.3,107.8,664.5,106.6,659.5,111.4z"/>
		<path class="st1" d="M646.8,110.5c-1.6,0.6-3.5,1.9-5.3,3.4c-1.7,1.6-3.3,3.4-4.3,5.2c5.2-7.2,15.5-7.8,21.8-6.8
			C655.7,109.8,650.9,109,646.8,110.5z"/>
		<path class="st1" d="M808.8,118.4c0.9-2.6-1.3-5.6-4-6.3c-2.7-0.7-5.6,0.3-8,1.7c-2-2.7-4.9-4.8-8.1-5.5c-3.3-0.7-7,0.4-9,3.1
			c-2.7-3.5-7.7-6.6-12.6-6.8c-3.8-0.2-6.6,0.9-10,2.8c-0.6-3.8-3.3-9.5-6.1-12.2c-1.4-1.4-3.3-2.5-5.2-3c-0.5-0.1-3.3-0.7-5.6,0
			c0.1-4.7-1.3-9.5-4.6-12.8c-4.1-4.1-12-6.5-17.3-3.9c0.8-6.2-3.3-12.8-9.8-13.5c-4.2-0.4-7.4,2.4-11.4,3c-4.1,0.6-7.9,2.8-10.6,6
			c-3.1,3.7-4.6,8.5-4.7,13.3c-4.1-0.5-8.3,1.8-10.7,5.2c-1.3,1.8-2.1,3.8-2.6,6c3.5-7.8,10.4-8.9,17.1-7.8
			c-0.3-5.1,2.7-10.3,7.3-12.6c4.6-2.3,10.5-1.5,14.4,1.9c2.5-1.4,5.7-1.4,8.2,0c2.5,1.4,4.1,4.2,4.1,7.1c4.4-0.8,10-0.5,12,4.2
			c2.5,5.8-1.8,6.4-4.9,7.8c-0.5,0-1,0.1-1.4,0.2c-4,0.6-7.9,1.7-11.5,3.6c-1.8,1-3.5,2.1-5,3.5c-1.5,1.4-2.8,3-3.6,4.9
			c3-2.6,6.4-4.2,9.9-5.4c3.5-1.2,7.1-2,10.8-2.5c3.7-0.5,7.4-0.8,11.1-0.6c3.7,0.2,7.4,0.6,10.9,2.4c4,3,6.2,7.2,5.7,12.1
			c8.1-5.8,20.6-4.4,28.8,1.2c2.5-2.1,6-2.9,9.2-2.1c3.2,0.8,5.8,3.3,7,6.3c0.7-3.2,4.6-5.3,7.5-3.9c2.6,1.3,2.1,5.2-0.1,7.2
			c3.7-2.7,10.2-4,13,0.6C817.7,119.1,813.6,118.1,808.8,118.4z"/>
	</g>
</g>
<g id="Cloud7_1_">
	<g id="Cloud7">
		<path class="st53" d="M889.8,84.2c-1.2,0-1.8,1.4-1.8,2c-0.2,2,1.8,3.6,3.6,3.9c2.2,0.3,4.9-0.8,6.3-2.4c0.7,1.2,2.6,1.8,3.8,1.8
			c1.6,0,3.2-0.6,4.6-1.3c1.3,4,5.2,7.1,9.4,7.5c4.2,0.4,9.4-2.3,10.7-5.6c0.9,1.5,3.4,3.3,5.8,3.5c5.1,0.4,9.5-1.5,13.5-4.6
			c0.9,1.3,2.7,2.9,4.1,3.7c3.3,1.8,5.8,1.6,8.3,1.2c3.6-0.6,6.7-2.8,9.2-5.4c1.8,1.9,5.1,2.7,6.8,2.8c2.6,0.2,5.8-0.9,6.8-2.1
			c0.6,0.8,1.9,1.6,2.7,1.9c4.2,1.4,8.1,0.4,10.8-1.8c2.2,0.3,5.4-1.1,6.4-2.6c1.4-2.3,1.2-5.3-0.6-7.3c1.4-3.1,1.1-6.8-0.5-9.8
			c-2.4-4.7-7.3-6.6-10.6-6.1c-1-2.8-7-5.6-10.9-3.9c0.5-2.7-0.9-5.5-3-7.3c-2.1-1.8-4.8-2.7-7.5-3.1c-1.7-0.3-3.8,0.2-5.5,0.8
			c-0.6,0.3-1.2,0.7-1.7,1.1c-2.2,1.8-3.3,4.2-3.9,6.9c-0.3,1.3-0.7,3.6,0.5,6.2c-4.1-2.2-9.2-2.7-13.6-1.2
			c-4.4,1.5-8.2,4.9-10.2,9.2c-1-1.5-3.1-2.2-4.4-2.3c-1.9-0.1-4.1,0.2-5.8,1.2c-1.7,1-2.9,3-3,5c-1.5-2.9-4.8-4.7-8.1-4.3
			c-2,0.2-4.9,2.1-6.2,4.7c-0.8-0.4-3.4-0.3-4.9,0.1c-1.6,0.4-4.2,1.6-5.2,3.5c-0.3-0.3-1-0.8-1.7-0.9c-1.2-0.2-2.5,0.2-3.4,1.3
			C889.8,81.2,889.3,83.1,889.8,84.2z"/>
		<path class="st54" d="M897.9,87.6c0.7,1.2,2.6,1.8,3.8,1.8c1.6,0,3.2-0.6,4.6-1.3c1.3,4,5.2,7.1,9.4,7.5c4.2,0.4,9.4-2.3,10.7-5.6
			c0.9,1.5,3.4,3.3,5.8,3.5c5.1,0.4,9.5-1.5,13.5-4.6c0.9,1.3,2.7,2.9,4.1,3.7c3.3,1.8,5.8,1.6,8.3,1.2c3.6-0.6,6.7-2.8,9.2-5.4
			c1.8,1.9,5.1,2.7,6.8,2.8c2.6,0.2,5.8-0.9,6.8-2.1c0.6,0.8,1.9,1.6,2.7,1.9c4.2,1.4,8.1,0.4,10.8-1.8c2.2,0.3,5.4-1.1,6.4-2.6
			c0.4-0.7,0.7-1.5,0.8-2.4c-2.7,4.6-12.6,2.5-15.8-2.1c0,0,0.1,0,0.1,0c0.4,0.2,0.9,0.4,1.3,0.5c0.5,0.1,0.9,0.3,1.4,0.3
			c1.9,0.3,3.8,0.2,5.6-0.4c1.8-0.5,3.4-1.4,4.8-2.5c-1.7,0.6-3.4,1.2-5.1,1.5c-0.4,0.1-0.9,0.1-1.3,0.2c-0.4,0-0.9,0-1.3,0.1
			c-0.4,0-0.8,0-1.3,0c-0.4,0-0.8-0.1-1.3-0.2c-1.7-0.3-3.2-0.9-4.6-2c-1.3-1-2.4-2.4-3.2-4v0v0l0,0v0c0.2,2.3,1.5,8.6-6.9,8.4
			c-2.7-0.1-6.4-1.5-7.6-3.3c1-0.2,1.9-0.6,2.8-1c2.2-1,4.1-2.5,5.4-4.5c-2,1.2-4,2.1-6.1,2.7c-2.1,0.6-4.2,0.8-6.3,0.8
			c-2.1,0-4.3-0.2-6.4-0.8c-2.1-0.6-4.1-1.4-5.9-2.8c0.3,0.5,0.5,1.1,0.9,1.5c0.2,0.2,0.4,0.5,0.6,0.7c0.2,0.2,0.4,0.4,0.7,0.6
			c0.4,0.3,0.9,0.6,1.3,0.9c8.4,6.9-6.6,8.9-11.7,6.2c-3.7,2.2-12.3,2.4-12.9-2.6c1.1-0.2,2.2-0.7,3.1-1.3c1.2-0.9,2.2-2.1,2.5-3.6
			c-1.6,2.4-4.2,3.4-6.8,3.6c-2.6,0.2-5.3-0.5-7.3-2.5c0.1,0.4,0.3,0.7,0.6,1c1.6,2.9,1.9,4.5,0,7.3c-2.9,4.3-11.5,4.1-14.6-1.5
			c-1.6,2.1-7,2.1-9-0.4c-1.3,3.8-7.1,5.4-9.4,1.8c0.3,1.6,2,2.8,3.6,3C893.7,90.4,896.5,89.3,897.9,87.6z"/>
		<path class="st1" d="M999.6,69.4c-2.4-4.7-7.3-6.6-10.6-6.1c-1-2.8-7-5.6-10.9-3.9c0.5-2.7-0.9-5.5-3-7.3
			c-2.1-1.8-4.8-2.7-7.5-3.1c-1.7-0.3-3.8,0.2-5.5,0.8c-0.6,0.3-1.2,0.7-1.7,1.1c-2.2,1.8-3.3,4.2-3.9,6.9c-0.3,1.3-0.7,3.5,0.5,6.1
			c0,0-0.1,0-0.1,0c-4.1-2.2-9.1-2.6-13.5-1.1c-4.4,1.5-8.2,4.9-10.2,9.2c-1-1.5-3.1-2.2-4.4-2.3c-1.9-0.1-4.1,0.2-5.8,1.2
			c-1.7,1-2.9,3-3,5c-1.5-2.9-4.8-4.7-8.1-4.3c-2,0.2-4.9,2.1-6.2,4.7c-0.8-0.4-3.4-0.3-4.9,0.1c-1.6,0.4-4.2,1.6-5.2,3.5
			c-0.3-0.3-1-0.8-1.7-0.9c-1.2-0.2-2.5,0.2-3.4,1.3c-0.7,0.9-1.2,2.8-0.7,3.8c-0.9,0-1.4,0.8-1.7,1.4c0.6-0.8,1.6-1.1,2.7-1
			c-0.1-1.1,0.6-2.4,2.4-3.1c1.3-0.5,2.9-0.5,3.4,0.5c2.1-3.3,7.3-3.9,10.1-1.3c0.6-2.1,2.7-3.5,4.4-3.5c2,0,3.4,0.7,4.2,2.1
			c0.9-1.5,2.8-2.1,4.4-1.9c0.9-2.6,5.2-4.5,7.8-2.8c1.6-2.8,7.7-2,10,0.4c1.7-7,9.4-11.8,16.8-9.9c-1.3,0.6-2.6,1.4-3.7,2.5
			c1.6-0.4,3.1-0.8,4.7-1.2c1.5-0.3,3.1-0.6,4.6-0.7c1.5-0.2,3.1-0.2,4.6-0.2c1.6,0,3.1,0.1,4.8,0.2c-1.4-0.9-3-1.5-4.7-1.8
			c-1-0.2-2.1-0.3-3.1-0.3c1.6-2.5,4.2-4.5,8.3-4.5c3.8,0,5.4,2.5,5.7,3.7c0.7-1,2.8-1.9,4.5-1.7c3.8,0.4,5.6,2.7,5.3,5
			c-0.3,0.1-0.7,0.2-1,0.3c-1.3,0.5-2.6,1.3-3.5,2.3c1.4-0.3,2.6-0.6,3.9-0.8c1.3-0.2,2.5-0.2,3.7-0.2c1.2,0,2.5,0.2,3.7,0.4
			c1.3,0.2,2.5,0.6,3.8,1c2,1.3,4.4,4.7,4.2,9C1001.3,75.1,1000.9,72,999.6,69.4z"/>
	</g>
</g>
<g id="Clouds9">
	<g id="Cloud9">
		<path class="st41" d="M1121.6,36.2c-2.2,0.6-4.2,2.2-5.7,3.8c0-1.3-0.9-2.4-2.1-2.8c-1.2-0.4-2.5-0.2-3.7,0.3
			c-0.9,0.4-3.5,1.9-3.4,4.8c-1.3,0.8-2.1,2.6-2.2,3.1c-0.5,1.7,0.2,3.6,1.6,4.6c1.9,1.4,4.8,1,6.6-0.5c0.9,1.5,2.3,3.5,2.7,3.9
			c1.2,1.2,2.5,2.2,4,2.8c4,1.6,6.3,1.2,9.8-0.1c2.6-0.9,6.6-3.5,7.2-6.4c0.7,1.1,2,1.8,3.3,2c1.6,0.1,4.3-0.8,5.2-1.9
			c1.3,1.5,3.3,1.5,5.1,1.1c1.8-0.4,3.7-1,4.9-2.4c1.9-2.1,2.5-5,1.8-7.7c-0.3-1.4-1.1-2.8-2.2-3.8c-1.2-1-3.3-1.7-4.9-1.9
			c-0.4,0-2.1,0-3.4,0.5c-0.3-2.8-2.8-5-5.6-5.6c-2.8-0.5-5.7,0.4-8,2.1c-0.7,0.5-3.3,3.1-4,5.8c-1.4-1.6-3.7-2.4-5.8-2.1
			C1122.6,36,1122.1,36.1,1121.6,36.2z"/>
		<path class="st42" d="M1104.5,46.9c0.1,1.2,0.7,2.4,1.7,3.1c1.9,1.4,4.8,1,6.6-0.5c0.9,1.5,2.3,3.5,2.7,3.9c1.2,1.2,2.5,2.2,4,2.8
			c4,1.6,6.3,1.2,9.8-0.1c2.6-0.9,6.6-3.5,7.2-6.4c0.7,1.1,2,1.8,3.3,2c1.6,0.1,4.3-0.8,5.2-1.9c1.3,1.5,3.3,1.5,5.1,1.1
			c1.8-0.4,3.7-1,4.9-2.4c1.1-1.2,1.7-2.7,2-4.2c-2.6,4.5-6,3.3-7.8,1.3c0.4,0.1,0.8,0.1,1.3,0c1.7-0.2,3.2-1.4,3.8-2.8
			c-1.2,1.1-2.5,1.9-3.9,2.1c-1.4,0.2-2.9-0.3-4.3-1.1c0.5,0.7,1.1,1.2,1.9,1.5c0.2,0.1,0.5,0.2,0.8,0.3c-0.7,1.5-2.9,2.8-5.4,3.2
			c-1.8,0.2-3.8-0.3-5.2-1.5c1.3-0.9,2.3-2.2,2.9-3.6c-1.1,1.1-2.3,2-3.6,2.7c-1.3,0.7-2.7,1-4.1,1.1c-1.4,0.1-2.8-0.1-4.2-0.7
			c-1.4-0.5-2.6-1.3-3.9-2.3c0.7,1.4,1.9,2.6,3.4,3.4c1.4,0.8,3.1,1.2,4.8,1c1-0.1,1.9-0.3,2.8-0.7c-2.3,2.6-6.3,5.4-12.1,4.7
			c-2.8-0.3-5.7-1.8-7-4.1c-2.2,1-3.9,0.1-4.3-2.9c0,0,0.1,0,0.1,0c0.7-0.2,1.3-0.6,1.7-1.2c0.4-0.5,0.7-1.1,0.9-1.8
			c-0.4,0.5-0.8,1-1.3,1.4c-0.5,0.4-1,0.7-1.6,0.8c-0.6,0.2-1.2,0.2-1.8,0.2c-0.6,0-1.2-0.1-1.9-0.2c0.5,0.4,1.1,0.8,1.8,0.9
			c0.5,0.1,1.1,0,1.6-0.1C1110.8,49.8,1105.7,50.2,1104.5,46.9z"/>
		<path class="st1" d="M1144.9,39.6c2.2-2.5,8.4-3.6,11.5,0.1c-0.4-1-1-1.9-1.8-2.5c-1.2-1-3.3-1.7-4.9-1.9c-0.4,0-2.1,0-3.4,0.5
			c-0.3-2.8-2.8-5-5.6-5.6c-2.8-0.5-5.7,0.4-8,2.1c-0.7,0.5-3.3,3.1-4,5.8c-1.4-1.6-3.7-2.4-5.8-2.1c-0.5,0-0.9,0.1-1.4,0.3
			c-2.2,0.6-4.2,2.2-5.7,3.8c0-1.3-0.9-2.4-2.1-2.8c-1.2-0.4-2.5-0.2-3.7,0.3c-0.9,0.4-3.5,1.9-3.4,4.8c-1.3,0.8-2.1,2.6-2.2,3.1
			c0,0.1,0,0.1,0,0.2c0.9-1.9,2.1-2.2,3.7-1.6c-1-1.6,0.4-3.7,2.1-4.4c3.2-1.3,5.6,0.9,5.4,2.7c1.1-1,2.3,0.2,2.3,1.3
			c0.7-2.1,2.6-3.5,4.8-4.1c1.8-0.5,3.4-0.3,4.6,0.1c-0.6,0.5-1.2,1-1.6,1.7c2.2-1.2,4.3-1.8,6.6-2.1c1.1-0.2,2.3-0.2,3.5-0.2
			c1.2,0,2.4,0.1,3.6,0.2c-1.1-0.7-2.3-1.1-3.5-1.3c-0.5-0.1-0.9-0.1-1.4-0.2C1137.8,34.5,1143.6,35.3,1144.9,39.6z"/>
	</g>
</g>
<g id="Falling_Star_10">

		<radialGradient id="Falling_Star__10_1_" cx="427.1015" cy="62.2479" r="126.4989" gradientTransform="matrix(-0.676 0.7369 -2.312578e-02 -2.121489e-02 1213.58 -84.0303)" gradientUnits="userSpaceOnUse">
		<stop  offset="0" style="stop-color:#FFFFFF"/>
		<stop  offset="0.1354" style="stop-color:#FBFBFB;stop-opacity:0.8646"/>
		<stop  offset="0.2695" style="stop-color:#EFEFEF;stop-opacity:0.7305"/>
		<stop  offset="0.403" style="stop-color:#DCDBDB;stop-opacity:0.597"/>
		<stop  offset="0.5364" style="stop-color:#C0BFC0;stop-opacity:0.4636"/>
		<stop  offset="0.6696" style="stop-color:#9D9B9C;stop-opacity:0.3304"/>
		<stop  offset="0.8027" style="stop-color:#726F70;stop-opacity:0.1973"/>
		<stop  offset="0.9333" style="stop-color:#403C3D;stop-opacity:6.669092e-02"/>
		<stop  offset="1" style="stop-color:#231F20;stop-opacity:0"/>
	</radialGradient>
	<path id="Falling_Star__10" class="st55" d="M893.3,200.7l89.6-97.7l61.3,56.2l-89.6,97.7l-27.7-25.4l0,0c-3.1,0.6-6.2-2.1-5.7-5.3
		l0,0L893.3,200.7z"/>
</g>
<g id="Falling_Star_9">

		<radialGradient id="Falling_Star_9_2_" cx="368.571" cy="183.4391" r="126.4989" gradientTransform="matrix(-0.8723 0.7546 -2.053222e-02 -2.373396e-02 1202.5055 -134.9673)" gradientUnits="userSpaceOnUse">
		<stop  offset="0" style="stop-color:#FFFFFF"/>
		<stop  offset="0.1354" style="stop-color:#FBFBFB;stop-opacity:0.8646"/>
		<stop  offset="0.2695" style="stop-color:#EFEFEF;stop-opacity:0.7305"/>
		<stop  offset="0.403" style="stop-color:#DCDBDB;stop-opacity:0.597"/>
		<stop  offset="0.5364" style="stop-color:#C0BFC0;stop-opacity:0.4636"/>
		<stop  offset="0.6696" style="stop-color:#9D9B9C;stop-opacity:0.3304"/>
		<stop  offset="0.8027" style="stop-color:#726F70;stop-opacity:0.1973"/>
		<stop  offset="0.9333" style="stop-color:#403C3D;stop-opacity:6.669092e-02"/>
		<stop  offset="1" style="stop-color:#231F20;stop-opacity:0"/>
	</radialGradient>
	<path id="Falling_Star_9_1_" class="st56" d="M850.7,106.8l115.6-100l54.4,62.9l-115.6,100l-24.6-28.5l0,0
		c-3.4,0.5-6.3-2.6-5.1-5.9l0,0L850.7,106.8z"/>
</g>
<g id="Falling_Star_8">

		<radialGradient id="Falling_Star_8_2_" cx="435.6882" cy="256.9529" r="126.4989" gradientTransform="matrix(-0.5404 0.8709 -2.405278e-02 -1.492509e-02 1028.5499 -223.3604)" gradientUnits="userSpaceOnUse">
		<stop  offset="0" style="stop-color:#FFFFFF"/>
		<stop  offset="0.1354" style="stop-color:#FBFBFB;stop-opacity:0.8646"/>
		<stop  offset="0.2695" style="stop-color:#EFEFEF;stop-opacity:0.7305"/>
		<stop  offset="0.403" style="stop-color:#DCDBDB;stop-opacity:0.597"/>
		<stop  offset="0.5364" style="stop-color:#C0BFC0;stop-opacity:0.4636"/>
		<stop  offset="0.6696" style="stop-color:#9D9B9C;stop-opacity:0.3304"/>
		<stop  offset="0.8027" style="stop-color:#726F70;stop-opacity:0.1973"/>
		<stop  offset="0.9333" style="stop-color:#403C3D;stop-opacity:6.669092e-02"/>
		<stop  offset="1" style="stop-color:#231F20;stop-opacity:0"/>
	</radialGradient>
	<path id="Falling_Star_8_1_" class="st57" d="M755.5,131.8l71.6-115.4l63.7,39.5l-71.6,115.4l-28.8-17.9l0,0
		c-2.8,1.3-6.1-0.6-6-3.7l0,0L755.5,131.8z"/>
</g>
<g id="Falling_Star_7">

		<radialGradient id="Falling_Star_7_2_" cx="595.885" cy="646.3557" r="126.4989" gradientTransform="matrix(0.4475 0.7572 -1.924209e-02 1.137205e-02 349.7361 -330.5491)" gradientUnits="userSpaceOnUse">
		<stop  offset="0" style="stop-color:#FFFFFF"/>
		<stop  offset="0.1354" style="stop-color:#FBFBFB;stop-opacity:0.8646"/>
		<stop  offset="0.2695" style="stop-color:#EFEFEF;stop-opacity:0.7305"/>
		<stop  offset="0.403" style="stop-color:#DCDBDB;stop-opacity:0.597"/>
		<stop  offset="0.5364" style="stop-color:#C0BFC0;stop-opacity:0.4636"/>
		<stop  offset="0.6696" style="stop-color:#9D9B9C;stop-opacity:0.3304"/>
		<stop  offset="0.8027" style="stop-color:#726F70;stop-opacity:0.1973"/>
		<stop  offset="0.9333" style="stop-color:#403C3D;stop-opacity:6.669092e-02"/>
		<stop  offset="1" style="stop-color:#231F20;stop-opacity:0"/>
	</radialGradient>
	<path id="Falling_Star_7_1_" class="st58" d="M578.1,142.5L518.8,42.1l51-30.1l59.3,100.3L606,126l0,0c0,2.6-2.5,4.2-4.8,2.8l0,0
		L578.1,142.5z"/>
</g>
<g id="Falling_Star_6">

		<radialGradient id="Falling_Star_6_2_" cx="579.8197" cy="655.4509" r="126.4989" gradientTransform="matrix(0.4433 0.7465 -2.072525e-02 1.230861e-02 337.1373 -271.6516)" gradientUnits="userSpaceOnUse">
		<stop  offset="0" style="stop-color:#FFFFFF"/>
		<stop  offset="0.1354" style="stop-color:#FBFBFB;stop-opacity:0.8646"/>
		<stop  offset="0.2695" style="stop-color:#EFEFEF;stop-opacity:0.7305"/>
		<stop  offset="0.403" style="stop-color:#DCDBDB;stop-opacity:0.597"/>
		<stop  offset="0.5364" style="stop-color:#C0BFC0;stop-opacity:0.4636"/>
		<stop  offset="0.6696" style="stop-color:#9D9B9C;stop-opacity:0.3304"/>
		<stop  offset="0.8027" style="stop-color:#726F70;stop-opacity:0.1973"/>
		<stop  offset="0.9333" style="stop-color:#403C3D;stop-opacity:6.669092e-02"/>
		<stop  offset="1" style="stop-color:#231F20;stop-opacity:0"/>
	</radialGradient>
	<path id="Falling_Star_6_1_" class="st59" d="M552.8,184.9L494,86l54.9-32.6l58.7,98.9l-24.9,14.8l0,0c-0.1,2.6-2.8,4.3-5.1,3.1
		l0,0L552.8,184.9z"/>
</g>
<g id="Falling_Star_5_2_">

		<radialGradient id="Falling_Star_5_1_" cx="634.2988" cy="391.8953" r="126.4989" gradientTransform="matrix(-0.5415 0.624 -1.792250e-02 -1.555361e-02 858.169 -209.935)" gradientUnits="userSpaceOnUse">
		<stop  offset="0" style="stop-color:#FFFFFF"/>
		<stop  offset="0.1354" style="stop-color:#FBFBFB;stop-opacity:0.8646"/>
		<stop  offset="0.2695" style="stop-color:#EFEFEF;stop-opacity:0.7305"/>
		<stop  offset="0.403" style="stop-color:#DCDBDB;stop-opacity:0.597"/>
		<stop  offset="0.5364" style="stop-color:#C0BFC0;stop-opacity:0.4636"/>
		<stop  offset="0.6696" style="stop-color:#9D9B9C;stop-opacity:0.3304"/>
		<stop  offset="0.8027" style="stop-color:#726F70;stop-opacity:0.1973"/>
		<stop  offset="0.9333" style="stop-color:#403C3D;stop-opacity:6.669092e-02"/>
		<stop  offset="1" style="stop-color:#231F20;stop-opacity:0"/>
	</radialGradient>
	<path id="Falling_Star_5_3_" class="st60" d="M484.3,158.7L556.1,76l47.5,41.2l-71.8,82.7l-21.5-18.7l0,0c-2.5,0.6-4.9-1.3-4.4-3.9
		l0,0L484.3,158.7z"/>
</g>
<g id="Falling_Star_4_2_">

		<radialGradient id="Falling_Star_4_1_" cx="803.5883" cy="759.1146" r="126.4989" gradientTransform="matrix(0.575 0.6673 -2.000081e-02 1.723244e-02 -0.7317 -303.4742)" gradientUnits="userSpaceOnUse">
		<stop  offset="0" style="stop-color:#FFFFFF"/>
		<stop  offset="0.1354" style="stop-color:#FBFBFB;stop-opacity:0.8646"/>
		<stop  offset="0.2695" style="stop-color:#EFEFEF;stop-opacity:0.7305"/>
		<stop  offset="0.403" style="stop-color:#DCDBDB;stop-opacity:0.597"/>
		<stop  offset="0.5364" style="stop-color:#C0BFC0;stop-opacity:0.4636"/>
		<stop  offset="0.6696" style="stop-color:#9D9B9C;stop-opacity:0.3304"/>
		<stop  offset="0.8027" style="stop-color:#726F70;stop-opacity:0.1973"/>
		<stop  offset="0.9333" style="stop-color:#403C3D;stop-opacity:6.669092e-02"/>
		<stop  offset="1" style="stop-color:#231F20;stop-opacity:0"/>
	</radialGradient>
	<path id="Falling_Star_4_3_" class="st61" d="M419.2,268.1L343,179.7l53-45.6l76.2,88.4l-24,20.7l0,0c0.3,2.7-2.3,5.1-5,4.3l0,0
		L419.2,268.1z"/>
</g>
<g id="Falling_Star_3_2_">

		<radialGradient id="Falling_Star_3_1_" cx="759.0599" cy="712.5715" r="126.4989" gradientTransform="matrix(-0.3647 0.6921 -2.402736e-02 -1.266056e-02 616.9296 -305.406)" gradientUnits="userSpaceOnUse">
		<stop  offset="0" style="stop-color:#FFFFFF"/>
		<stop  offset="0.1354" style="stop-color:#FBFBFB;stop-opacity:0.8646"/>
		<stop  offset="0.2695" style="stop-color:#EFEFEF;stop-opacity:0.7305"/>
		<stop  offset="0.403" style="stop-color:#DCDBDB;stop-opacity:0.597"/>
		<stop  offset="0.5364" style="stop-color:#C0BFC0;stop-opacity:0.4636"/>
		<stop  offset="0.6696" style="stop-color:#9D9B9C;stop-opacity:0.3304"/>
		<stop  offset="0.8027" style="stop-color:#726F70;stop-opacity:0.1973"/>
		<stop  offset="0.9333" style="stop-color:#403C3D;stop-opacity:6.669092e-02"/>
		<stop  offset="1" style="stop-color:#231F20;stop-opacity:0"/>
	</radialGradient>
	<path id="Falling_Star_3_3_" class="st62" d="M291.5,193.6l48.3-91.7l63.6,33.5l-48.3,91.7l-28.8-15.2l0,0c-2.4,1-5.6-0.6-6-3.1
		l0,0L291.5,193.6z"/>
</g>
<g id="Falling_Star_2">

		<radialGradient id="Falling_Star_2_2_" cx="713.4151" cy="913.8187" r="126.4989" gradientTransform="matrix(0.5938 0.6892 -1.739792e-02 1.498982e-02 -120.9055 -286.5041)" gradientUnits="userSpaceOnUse">
		<stop  offset="0" style="stop-color:#FFFFFF"/>
		<stop  offset="0.1354" style="stop-color:#FBFBFB;stop-opacity:0.8646"/>
		<stop  offset="0.2695" style="stop-color:#EFEFEF;stop-opacity:0.7305"/>
		<stop  offset="0.403" style="stop-color:#DCDBDB;stop-opacity:0.597"/>
		<stop  offset="0.5364" style="stop-color:#C0BFC0;stop-opacity:0.4636"/>
		<stop  offset="0.6696" style="stop-color:#9D9B9C;stop-opacity:0.3304"/>
		<stop  offset="0.8027" style="stop-color:#726F70;stop-opacity:0.1973"/>
		<stop  offset="0.9333" style="stop-color:#403C3D;stop-opacity:6.669092e-02"/>
		<stop  offset="1" style="stop-color:#231F20;stop-opacity:0"/>
	</radialGradient>
	<path id="Falling_Star_2_1_" class="st63" d="M263.3,238.2l-78.7-91.3l46.1-39.7l78.7,91.3l-20.9,18l0,0c0.5,2.7-1.8,4.7-4.3,3.7
		l0,0L263.3,238.2z"/>
</g>
<g id="Falling_Star1_1_">

		<radialGradient id="FallingStar1_2_" cx="441.545" cy="1014.2188" r="126.4989" gradientTransform="matrix(0.5424 0.6296 -1.695612e-02 1.460917e-02 -26.5954 -58.4306)" gradientUnits="userSpaceOnUse">
		<stop  offset="0" style="stop-color:#FFFFFF"/>
		<stop  offset="0.1354" style="stop-color:#FBFBFB;stop-opacity:0.8646"/>
		<stop  offset="0.2695" style="stop-color:#EFEFEF;stop-opacity:0.7305"/>
		<stop  offset="0.403" style="stop-color:#DCDBDB;stop-opacity:0.597"/>
		<stop  offset="0.5364" style="stop-color:#C0BFC0;stop-opacity:0.4636"/>
		<stop  offset="0.6696" style="stop-color:#9D9B9C;stop-opacity:0.3304"/>
		<stop  offset="0.8027" style="stop-color:#726F70;stop-opacity:0.1973"/>
		<stop  offset="0.9333" style="stop-color:#403C3D;stop-opacity:6.669092e-02"/>
		<stop  offset="1" style="stop-color:#231F20;stop-opacity:0"/>
	</radialGradient>
	<path id="FallingStar1_1_" class="st64" d="M172.8,253.2l-71.9-83.4l44.9-38.7l71.9,83.4L197.4,232l0,0c0.4,2.5-1.8,4.5-4.2,3.6
		l0,0L172.8,253.2z"/>
</g>
</svg>
