<?xml version="1.0" encoding="utf-8"?>
<!-- Generator: Adobe Illustrator 23.0.2, SVG Export Plug-In . SVG Version: 6.00 Build 0)  -->
<svg version="1.1" id="Layer_1" xmlns="http://www.w3.org/2000/svg" xmlns:xlink="http://www.w3.org/1999/xlink" x="0px" y="0px"
	 viewBox="0 0 283.46 177.66" style="enable-background:new 0 0 283.46 177.66;" xml:space="preserve">
<style type="text/css">
	.st0{fill:#FDB813;}
	.st1{fill:#FFF3CC;}
	.st2{fill-rule:evenodd;clip-rule:evenodd;fill:#A7A9AC;}
	.st3{fill-rule:evenodd;clip-rule:evenodd;fill:#FFF3CC;}
	.st4{fill-rule:evenodd;clip-rule:evenodd;}
	.st5{fill:none;stroke:#FFF3CC;stroke-width:0.941;stroke-miterlimit:3.864;}
</style>
<polygon class="st0" points="129.47,115.21 132.71,115.21 131.53,121.11 129.76,122.14 131.53,142.13 119.74,142.13 121.51,122.14 
	119.15,121.11 117.97,115.21 121.51,115.21 121.51,116.75 124.46,116.75 124.46,115.21 126.52,115.21 126.52,116.75 129.47,116.75 
	"/>
<polygon class="st0" points="159.36,115.21 162.6,115.21 161.42,121.11 159.65,122.14 161.42,142.13 149.63,142.13 151.4,122.14 
	149.04,121.11 147.86,115.21 151.4,115.21 151.4,116.75 154.34,116.75 154.34,115.21 156.41,115.21 156.41,116.75 159.36,116.75 "/>
<polygon class="st0" points="142.14,122.91 144.2,122.91 144.2,124.44 147.15,124.44 147.15,122.91 149.55,122.91 147.65,142.12 
	133.59,142.12 131.82,122.91 134.18,122.91 134.18,124.44 137.13,124.44 137.13,122.91 139.19,122.91 139.19,124.44 142.14,124.44 
	"/>
<polygon class="st0" points="144.12,106.4 147.36,106.4 146.18,112.29 144.41,113.32 146.18,121.06 134.39,121.06 136.16,113.32 
	133.8,112.29 132.62,106.4 136.16,106.4 136.16,107.94 139.11,107.94 139.11,106.4 141.17,106.4 141.17,107.94 144.12,107.94 "/>
<rect x="139.31" y="113.49" class="st1" width="2.06" height="5.38"/>
<rect x="139.55" y="126.75" class="st1" width="2.06" height="3.06"/>
<path class="st1" d="M136.32,135.49c0-2.09,1.93-3.78,4.32-3.78h0.04c2.39,0,4.32,1.69,4.32,3.78v5.53h-8.69V135.49"/>
<rect x="124.31" y="122.65" class="st1" width="2.06" height="5.38"/>
<rect x="154.2" y="122.65" class="st1" width="2.06" height="5.38"/>
<rect x="119.45" y="143.61" class="st0" width="42.43" height="1.18"/>
<path class="st2" d="M31.75,97.41c2.79,4.66,5.52,9.3,8.24,14c2.58,4.47,5.11,9.03,7.61,13.54l7.09-4.09
	c8.52-4.92,8.14-12.61,3.6-20.48c-4.41-7.63-10.96-11.77-19.22-7.2L31.75,97.41 M53.13,103.21c4.88,8.44,3.65,11.92-1.02,14.62
	c-0.7,0.4-1.16,0.57-1.49,0.71c-2.03-3.51-4.14-6.91-6.17-10.42c-1.94-3.35-3.83-6.73-5.65-10.15c0.39-0.22,0.65-0.48,1.23-0.81
	C44.77,94.41,48.48,95.15,53.13,103.21 M59.57,82.25c0.98,2.19,1.36,2.91,3.99,9.77c1.21,3.16,2.32,6.31,3.54,9.47
	c3.38,8.81,7.29,9.79,13.06,7.57c6.11-2.34,7.94-6.15,5.92-12.28c-0.57-1.6-6.86-18.11-8.01-21.62l-4.57,1.75
	c0.45,0.92,0.64,1.18,1.86,4.34l5.61,14.63c2.46,6.4,1.09,8.31-1.61,9.34c-3.16,1.21-5.09-0.72-6.16-3.5l-5.98-15.58
	c-0.72-2.01-1.52-3.95-2.16-5.99L59.57,82.25z M90.2,71.47c1.01,4.75,1.65,7.57,2.47,11.76c2,10.27,2.62,14.64,3.25,19.5l5.11-0.99
	c-0.02-0.13-0.18-0.69-0.25-1.04c-1.67-7.88-3.34-15.77-4.95-23.61c3.5,6.12,6.73,12.21,9.85,18.49l3.32-0.65
	c0.64-6.97,1.38-13.92,2.08-20.81c1.51,8.23,3.16,16.48,4.59,24.77l5.59-1.09c-1.26-4.38-2.92-13.17-4.03-18.9
	c-1.26-6.47-1.58-8.81-2.12-12.28l-7.73,1.5c-0.3,5.91-0.84,11.77-1.42,17.64c-2.79-5.26-5.49-10.5-8.23-15.77L90.2,71.47z
	 M126.96,65.37c0.14,1.6,0.72,14.14,0.84,17.79c0.17,4.67,0.19,9.3,0.35,13.97l10.19-0.35c4.98-0.18,10.42-2.59,10.19-9.09
	c-0.16-4.54-2.83-7.07-6.93-8.4c3.26-1.05,5.34-3.79,5.22-7.26c-0.17-4.85-3.99-7.08-8.49-7.05L126.96,65.37z M134.96,68.83
	c4.36-0.15,6.1,1.3,6.21,4.24c0.11,3.2-2.06,4.71-6.42,4.86c-0.76,0.03-1.16,0-1.6-0.03c-0.13-1.2-0.28-2.89-0.34-4.53
	c-0.06-1.69-0.03-3.34,0.02-4.45L134.96,68.83z M136.27,82.06c3.46-0.25,6.35,1.96,6.47,5.48c0.12,3.56-1.95,5.41-6.26,5.56
	c-0.8,0.03-2.09,0.07-2.81,0.01l-0.38-10.94L136.27,82.06z M159.93,97.42c0.22-3.38,1-10.73,1.37-14.31l3.06,0.23
	c1.41,4.89,2.81,9.87,3.8,14.95l6.64,0.7c-0.36-1.29-4.69-13.7-5.12-16.02c2.54-0.76,6.09-2.18,6.63-7.31
	c0.6-5.71-3.28-8.81-8.86-9.39l-10.09-1.06c-0.18,4.68-0.96,11.67-1.94,21.01c-0.28,2.61-0.77,8.15-1.29,10.61L159.93,97.42z
	 M162.73,69.56c0.76-0.01,1.39,0.01,1.74,0.05c3.45,0.36,6.52,1.4,6.08,5.61c-0.35,3.32-3.15,4.37-6.42,4.02
	c-1.42-0.15-1.9-0.24-2.39-0.3L162.73,69.56z M187.01,69.32c-1.18,6.4-2.92,12.81-4.49,19.11c-0.42,1.68-2.61,9.9-3.07,11.76
	l17.88,4.46l1.11-4.45c-4.19-0.68-8.35-1.67-12.51-2.61c0.25-1.36,0.56-2.8,0.87-4.05c0.44-1.77,1.02-3.92,1.55-5.67l7.97,2.26
	l1.16-4.67l-8.01-1.72c0.5-2.35,0.72-3.26,0.91-3.99c0.36-1.43,0.9-3.63,1.32-4.95c1.27,0.27,1.84,0.37,2.7,0.58
	c3.02,0.75,6,1.68,8.91,2.91l1.15-4.62L187.01,69.32z M230.49,84.2c-0.81-0.85-2.24-1.82-4.3-2.65c-8.96-3.62-17.34,3.12-20.53,11
	c-3.6,8.92,0.54,16.25,6.15,18.52c4,1.62,8.41-0.25,9.89-1.19l-1.11-2.61c-1.25,0.6-3.67,1.25-5.9,0.35
	c-4.17-1.68-5.8-6.9-2.89-14.13c2.08-5.16,6.48-10.92,11.88-8.74c2.35,0.95,3.76,3.3,4.52,5.09L230.49,84.2z M239.21,88.1
	c-2.99,5.52-3.7,6.76-7.59,13.5c-3.92,6.78-6.14,10.54-8.34,14l5.24,3.03c1.39-2.95,2.98-5.78,4.6-8.6l5.72-3.33
	c-0.8,6.02-1.48,11.02-2.35,16.53l5.71,3.29c0.1-7.65,1.44-15.31,2.31-22.88c4.08-2.43,6.4-3.25,8.01-2.31
	c0.39,0.22,0.81,0.57,0.9,0.67l2.56-4.43c-3.89-2.25-7.58-1.29-18.93,5.82l3.22-5.75c1.05-1.81,2.83-4.64,4.03-6.62L239.21,88.1z
	 M115.06,25.39c-6.58,0.81-10.67,8.04-9.48,17.8c1.2,9.76,6.92,15.79,13.5,14.98c6.58-0.81,10.67-8.04,9.47-17.8
	C127.36,30.6,121.65,24.58,115.06,25.39 M115.54,29.27c3.49-0.43,6.19,3.68,7.19,11.81c1,8.13-0.63,12.77-4.12,13.2
	c-3.49,0.43-6.19-3.68-7.19-11.81C110.42,34.34,112.05,29.7,115.54,29.27 M136.51,23.91c0.13,5.17,0.28,11.98,0.18,17.99
	c-0.08,4.58-0.21,9.21-0.46,13.79L153.8,56l0.08-4.63c-2.5,0.31-4.1,0.46-11.71,0.33c-0.08-3.21,0.15-16.11,0.19-18.65
	c0.04-2.18,0.25-6.58,0.38-9.03L136.51,23.91z M162.17,24.63c-0.57,5.4-1.19,10.75-1.85,16.14c-0.63,5.12-1.35,10.28-2.07,15.4
	l8.13,1c9.76,1.2,14.09-5.18,15.19-14.19c1.08-8.75-1.67-15.99-11.01-17.32L162.17,24.63z M175.76,42.13
	c-1.19,9.68-4.26,11.72-9.61,11.06c-0.8-0.1-1.27-0.25-1.62-0.33c0.49-4.02,0.85-8.01,1.34-12.03c0.47-3.84,0.99-7.68,1.59-11.51
	c0.44,0.05,0.81,0.01,1.47,0.09C174.37,30.07,176.9,32.9,175.76,42.13"/>
<path class="st3" d="M30.81,96.47c2.79,4.66,5.52,9.3,8.24,14c2.58,4.47,5.11,9.03,7.61,13.54l7.09-4.1
	c8.52-4.92,8.14-12.61,3.6-20.48c-4.41-7.63-10.96-11.77-19.22-7.2L30.81,96.47 M52.19,102.26c4.88,8.44,3.65,11.93-1.02,14.62
	c-0.7,0.4-1.16,0.57-1.49,0.71c-2.02-3.51-4.14-6.91-6.17-10.42c-1.94-3.35-3.83-6.73-5.65-10.15c0.39-0.22,0.65-0.48,1.23-0.81
	C43.83,93.47,47.54,94.21,52.19,102.26 M58.62,81.31c0.99,2.19,1.36,2.91,3.99,9.77c1.21,3.16,2.32,6.31,3.54,9.47
	c3.38,8.81,7.29,9.79,13.06,7.57c6.11-2.35,7.94-6.15,5.92-12.28c-0.56-1.6-6.85-18.11-8.01-21.62l-4.57,1.75
	c0.45,0.92,0.65,1.18,1.86,4.34l5.61,14.63c2.46,6.4,1.09,8.31-1.61,9.34c-3.16,1.21-5.09-0.72-6.16-3.5l-5.98-15.58
	c-0.73-2.01-1.52-3.95-2.16-5.99L58.62,81.31z M89.26,70.53c1.01,4.75,1.65,7.57,2.47,11.76c2,10.27,2.62,14.64,3.25,19.5l5.11-0.99
	c-0.03-0.13-0.18-0.69-0.25-1.04c-1.67-7.88-3.33-15.77-4.95-23.61c3.5,6.12,6.73,12.21,9.85,18.49l3.32-0.65
	c0.64-6.97,1.38-13.92,2.08-20.81c1.51,8.23,3.16,16.48,4.59,24.77l5.59-1.09c-1.26-4.38-2.92-13.17-4.03-18.9
	c-1.26-6.47-1.58-8.81-2.12-12.29l-7.73,1.5c-0.3,5.91-0.84,11.77-1.42,17.64c-2.79-5.26-5.49-10.5-8.23-15.77L89.26,70.53z
	 M126.01,64.42c0.14,1.6,0.72,14.14,0.84,17.79c0.16,4.67,0.19,9.3,0.36,13.97l10.19-0.36c4.98-0.18,10.42-2.59,10.19-9.09
	c-0.16-4.54-2.83-7.07-6.93-8.4c3.26-1.05,5.35-3.79,5.23-7.26c-0.17-4.85-3.99-7.08-8.49-7.05L126.01,64.42z M134.02,67.89
	c4.36-0.15,6.1,1.3,6.21,4.24c0.11,3.2-2.06,4.7-6.42,4.86c-0.76,0.03-1.16,0-1.6-0.03c-0.13-1.2-0.28-2.89-0.34-4.53
	c-0.06-1.69-0.03-3.34,0.02-4.45L134.02,67.89z M135.33,81.11c3.46-0.25,6.35,1.96,6.47,5.48c0.12,3.56-1.95,5.41-6.26,5.56
	c-0.8,0.03-2.09,0.07-2.81,0.01l-0.38-10.94L135.33,81.11z M158.99,96.48c0.22-3.38,0.99-10.73,1.37-14.31l3.06,0.23
	c1.41,4.89,2.81,9.87,3.8,14.95l6.64,0.7c-0.36-1.29-4.69-13.7-5.12-16.02c2.54-0.76,6.09-2.18,6.63-7.31
	c0.6-5.71-3.28-8.8-8.86-9.39l-10.09-1.06c-0.18,4.68-0.96,11.67-1.94,21.01c-0.27,2.61-0.77,8.15-1.29,10.61L158.99,96.48z
	 M161.79,68.62c0.76-0.01,1.39,0.01,1.74,0.05c3.45,0.36,6.52,1.4,6.08,5.61c-0.35,3.32-3.14,4.37-6.42,4.02
	c-1.42-0.15-1.9-0.24-2.39-0.3L161.79,68.62z M186.06,68.38c-1.18,6.4-2.92,12.81-4.49,19.11c-0.42,1.68-2.61,9.9-3.07,11.76
	l17.88,4.46l1.11-4.45c-4.19-0.68-8.35-1.67-12.51-2.61c0.25-1.36,0.56-2.8,0.87-4.05c0.44-1.77,1.02-3.92,1.55-5.67l7.97,2.26
	l1.16-4.67l-8.01-1.72c0.5-2.35,0.72-3.26,0.9-3.99c0.36-1.43,0.91-3.63,1.33-4.95c1.26,0.27,1.84,0.37,2.7,0.58
	c3.02,0.75,6,1.68,8.91,2.91l1.15-4.62L186.06,68.38z M229.55,83.26c-0.81-0.85-2.24-1.82-4.3-2.65c-8.96-3.62-17.34,3.12-20.53,11
	c-3.6,8.91,0.54,16.25,6.15,18.52c4,1.62,8.41-0.25,9.89-1.19l-1.11-2.61c-1.25,0.6-3.67,1.25-5.9,0.35
	c-4.17-1.68-5.8-6.9-2.89-14.13c2.08-5.16,6.48-10.92,11.88-8.74c2.35,0.95,3.76,3.29,4.52,5.09L229.55,83.26z M238.27,87.15
	c-2.98,5.52-3.7,6.76-7.59,13.5c-3.92,6.78-6.14,10.54-8.34,14l5.24,3.03c1.39-2.95,2.98-5.78,4.6-8.6l5.72-3.33
	c-0.8,6.02-1.48,11.02-2.35,16.53l5.71,3.29c0.1-7.65,1.44-15.31,2.31-22.88c4.07-2.43,6.4-3.25,8.01-2.31
	c0.39,0.22,0.8,0.57,0.9,0.67l2.56-4.43c-3.89-2.25-7.58-1.29-18.93,5.82l3.22-5.75c1.05-1.81,2.83-4.64,4.03-6.62L238.27,87.15z
	 M114.12,24.44c-6.58,0.81-10.67,8.04-9.48,17.8c1.2,9.76,6.92,15.79,13.5,14.98c6.58-0.81,10.67-8.04,9.47-17.8
	C126.42,29.66,120.7,23.64,114.12,24.44 M114.6,28.33c3.49-0.43,6.19,3.68,7.19,11.81c1,8.13-0.63,12.77-4.12,13.2
	c-3.49,0.43-6.19-3.68-7.19-11.81C109.48,33.4,111.11,28.76,114.6,28.33 M135.57,22.97c0.13,5.17,0.28,11.98,0.18,17.99
	c-0.08,4.58-0.21,9.21-0.46,13.79l17.58,0.31l0.08-4.63c-2.5,0.31-4.11,0.46-11.72,0.33c-0.08-3.21,0.15-16.11,0.19-18.65
	c0.04-2.18,0.25-6.58,0.38-9.03L135.57,22.97z M161.23,23.69c-0.57,5.4-1.19,10.75-1.85,16.14c-0.63,5.12-1.35,10.28-2.07,15.4
	l8.13,1c9.76,1.2,14.09-5.18,15.2-14.19c1.07-8.75-1.67-15.99-11.01-17.32L161.23,23.69z M174.82,41.19
	c-1.19,9.67-4.27,11.72-9.61,11.06c-0.8-0.1-1.27-0.25-1.62-0.33c0.49-4.02,0.85-8.01,1.34-12.03c0.47-3.84,0.99-7.68,1.59-11.51
	c0.44,0.05,0.81,0.01,1.47,0.09C173.43,29.13,175.95,31.95,174.82,41.19"/>
<path class="st4" d="M29.86,95.53c2.79,4.66,5.52,9.3,8.24,14c2.58,4.47,5.11,9.03,7.61,13.54l7.09-4.09
	c8.52-4.92,8.14-12.61,3.6-20.48C52,90.87,45.45,86.73,37.19,91.3L29.86,95.53z M51.25,101.32c4.87,8.44,3.65,11.93-1.02,14.62
	c-0.69,0.4-1.16,0.57-1.49,0.71c-2.02-3.51-4.14-6.91-6.17-10.42c-1.94-3.35-3.83-6.73-5.65-10.15c0.39-0.22,0.65-0.48,1.23-0.81
	C42.89,92.53,46.6,93.26,51.25,101.32 M57.68,80.37c0.99,2.2,1.36,2.91,3.99,9.77c1.21,3.16,2.33,6.31,3.54,9.46
	c3.38,8.81,7.29,9.79,13.06,7.57c6.11-2.34,7.94-6.15,5.92-12.28c-0.56-1.6-6.86-18.11-8.01-21.62l-4.57,1.75
	c0.45,0.92,0.65,1.18,1.86,4.34l5.61,14.63c2.46,6.4,1.09,8.31-1.61,9.34c-3.16,1.21-5.09-0.71-6.16-3.5l-5.98-15.58
	c-0.73-2.01-1.52-3.95-2.16-5.99L57.68,80.37z M88.31,69.58c1.01,4.75,1.65,7.57,2.47,11.76c2,10.27,2.62,14.64,3.25,19.5l5.11-0.99
	c-0.03-0.13-0.18-0.69-0.25-1.04c-1.67-7.88-3.34-15.77-4.95-23.61c3.5,6.12,6.73,12.21,9.85,18.49l3.32-0.65
	c0.64-6.97,1.38-13.92,2.08-20.81c1.51,8.23,3.16,16.48,4.59,24.77l5.59-1.09c-1.26-4.38-2.92-13.17-4.04-18.9
	c-1.26-6.47-1.58-8.81-2.12-12.29l-7.73,1.5c-0.3,5.91-0.84,11.77-1.42,17.64c-2.79-5.26-5.49-10.5-8.23-15.77L88.31,69.58z
	 M125.07,63.48c0.15,1.6,0.72,14.14,0.84,17.79c0.16,4.67,0.19,9.3,0.35,13.97l10.19-0.36c4.98-0.17,10.42-2.59,10.19-9.08
	c-0.16-4.54-2.83-7.07-6.93-8.4c3.26-1.05,5.35-3.79,5.23-7.26c-0.17-4.85-3.99-7.08-8.49-7.05L125.07,63.48z M133.08,66.94
	c4.36-0.15,6.1,1.3,6.21,4.24c0.11,3.2-2.06,4.71-6.42,4.86c-0.76,0.03-1.16,0-1.6-0.03c-0.13-1.2-0.28-2.88-0.34-4.53
	c-0.06-1.69-0.03-3.34,0.02-4.46L133.08,66.94z M134.38,80.17c3.46-0.26,6.35,1.96,6.47,5.48c0.12,3.56-1.95,5.41-6.26,5.56
	c-0.8,0.03-2.09,0.07-2.81,0.01l-0.38-10.94L134.38,80.17z M158.05,95.54c0.22-3.38,0.99-10.73,1.37-14.31l3.06,0.23
	c1.41,4.89,2.81,9.87,3.8,14.94l6.64,0.7c-0.36-1.29-4.69-13.7-5.12-16.02c2.54-0.76,6.09-2.18,6.63-7.31
	c0.6-5.71-3.28-8.8-8.86-9.39l-10.09-1.06c-0.18,4.68-0.96,11.67-1.94,21.01c-0.27,2.61-0.77,8.15-1.29,10.61L158.05,95.54z
	 M160.84,67.68c0.76-0.01,1.39,0.01,1.74,0.05c3.45,0.36,6.52,1.4,6.08,5.61c-0.35,3.32-3.14,4.37-6.42,4.02
	c-1.42-0.15-1.9-0.24-2.38-0.3L160.84,67.68z M185.12,67.44c-1.18,6.4-2.92,12.81-4.49,19.11c-0.42,1.68-2.61,9.9-3.07,11.76
	l17.88,4.46l1.11-4.45c-4.19-0.68-8.35-1.67-12.51-2.61c0.25-1.36,0.56-2.8,0.87-4.05c0.44-1.77,1.02-3.92,1.55-5.67l7.97,2.26
	l1.16-4.67l-8.01-1.72c0.5-2.35,0.72-3.26,0.9-3.99c0.36-1.43,0.91-3.63,1.33-4.95c1.26,0.27,1.84,0.37,2.7,0.58
	c3.02,0.75,6,1.68,8.91,2.91l1.15-4.62L185.12,67.44z M228.61,82.32c-0.81-0.85-2.24-1.82-4.31-2.65c-8.96-3.62-17.34,3.12-20.53,11
	c-3.6,8.92,0.54,16.25,6.15,18.52c4,1.62,8.41-0.25,9.89-1.19l-1.11-2.61c-1.25,0.6-3.67,1.25-5.9,0.35
	c-4.17-1.68-5.81-6.91-2.89-14.13c2.08-5.16,6.48-10.92,11.88-8.74c2.35,0.95,3.76,3.3,4.52,5.09L228.61,82.32z M237.33,86.21
	c-2.99,5.52-3.7,6.76-7.59,13.5c-3.92,6.78-6.14,10.54-8.34,14l5.24,3.03c1.39-2.95,2.98-5.79,4.6-8.6l5.72-3.33
	c-0.8,6.01-1.48,11.02-2.35,16.53l5.7,3.29c0.1-7.65,1.44-15.31,2.31-22.88c4.07-2.43,6.4-3.25,8.02-2.31
	c0.39,0.22,0.8,0.57,0.9,0.67l2.56-4.43c-3.89-2.25-7.58-1.29-18.94,5.82l3.22-5.75c1.05-1.81,2.83-4.64,4.03-6.62L237.33,86.21z
	 M113.18,23.5c-6.58,0.81-10.67,8.04-9.48,17.8c1.2,9.76,6.92,15.79,13.5,14.98c6.58-0.81,10.67-8.04,9.47-17.8
	C125.48,28.72,119.76,22.69,113.18,23.5 M113.66,27.39c3.49-0.43,6.19,3.68,7.19,11.81c1,8.13-0.63,12.77-4.12,13.2
	c-3.49,0.43-6.19-3.68-7.19-11.81C108.54,32.46,110.17,27.82,113.66,27.39 M134.63,22.03c0.13,5.17,0.28,11.98,0.18,17.99
	c-0.08,4.58-0.21,9.21-0.46,13.79l17.58,0.31l0.08-4.63c-2.5,0.31-4.1,0.46-11.71,0.33c-0.08-3.21,0.15-16.11,0.19-18.65
	c0.04-2.18,0.25-6.58,0.38-9.03L134.63,22.03z M160.29,22.74c-0.57,5.4-1.19,10.75-1.85,16.14c-0.63,5.13-1.35,10.28-2.07,15.4
	l8.13,1c9.76,1.2,14.09-5.18,15.2-14.19c1.07-8.75-1.67-15.99-11.01-17.32L160.29,22.74z M173.88,40.25
	c-1.19,9.67-4.26,11.72-9.61,11.06c-0.79-0.1-1.27-0.25-1.62-0.33c0.49-4.02,0.85-8.01,1.34-12.03c0.47-3.84,0.99-7.68,1.59-11.51
	c0.44,0.05,0.81,0.01,1.47,0.09C172.49,28.19,175.01,31.01,173.88,40.25"/>
<path class="st5" d="M29.86,95.53c2.79,4.66,5.52,9.3,8.24,14c2.58,4.47,5.11,9.03,7.61,13.54l7.09-4.09
	c8.52-4.92,8.14-12.61,3.6-20.48C52,90.87,45.45,86.73,37.19,91.3L29.86,95.53z M51.25,101.32c4.87,8.44,3.65,11.93-1.02,14.62
	c-0.69,0.4-1.16,0.57-1.49,0.71c-2.02-3.51-4.14-6.91-6.17-10.42c-1.94-3.35-3.83-6.73-5.65-10.15c0.39-0.22,0.65-0.48,1.23-0.81
	C42.89,92.53,46.6,93.26,51.25,101.32z M57.68,80.37c0.99,2.2,1.36,2.91,3.99,9.77c1.21,3.16,2.33,6.31,3.54,9.46
	c3.38,8.81,7.29,9.79,13.06,7.57c6.11-2.34,7.94-6.15,5.92-12.28c-0.56-1.6-6.86-18.11-8.01-21.62l-4.57,1.75
	c0.45,0.92,0.65,1.18,1.86,4.34l5.61,14.63c2.46,6.4,1.09,8.31-1.61,9.34c-3.16,1.21-5.09-0.71-6.16-3.5l-5.98-15.58
	c-0.73-2.01-1.52-3.95-2.16-5.99L57.68,80.37z M88.31,69.58c1.01,4.75,1.65,7.57,2.47,11.76c2,10.27,2.62,14.64,3.25,19.5l5.11-0.99
	c-0.03-0.13-0.18-0.69-0.25-1.04c-1.67-7.88-3.34-15.77-4.95-23.61c3.5,6.12,6.73,12.21,9.85,18.49l3.32-0.65
	c0.64-6.97,1.38-13.92,2.08-20.81c1.51,8.23,3.16,16.48,4.59,24.77l5.59-1.09c-1.26-4.38-2.92-13.17-4.04-18.9
	c-1.26-6.47-1.58-8.81-2.12-12.29l-7.73,1.5c-0.3,5.91-0.84,11.77-1.42,17.64c-2.79-5.26-5.49-10.5-8.23-15.77L88.31,69.58z
	 M125.07,63.48c0.15,1.6,0.72,14.14,0.84,17.79c0.16,4.67,0.19,9.3,0.35,13.97l10.19-0.36c4.98-0.17,10.42-2.59,10.19-9.08
	c-0.16-4.54-2.83-7.07-6.93-8.4c3.26-1.05,5.35-3.79,5.23-7.26c-0.17-4.85-3.99-7.08-8.49-7.05L125.07,63.48z M133.08,66.94
	c4.36-0.15,6.1,1.3,6.21,4.24c0.11,3.2-2.06,4.71-6.42,4.86c-0.76,0.03-1.16,0-1.6-0.03c-0.13-1.2-0.28-2.88-0.34-4.53
	c-0.06-1.69-0.03-3.34,0.02-4.46L133.08,66.94z M134.38,80.17c3.46-0.26,6.35,1.96,6.47,5.48c0.12,3.56-1.95,5.41-6.26,5.56
	c-0.8,0.03-2.09,0.07-2.81,0.01l-0.38-10.94L134.38,80.17z M158.05,95.54c0.22-3.38,0.99-10.73,1.37-14.31l3.06,0.23
	c1.41,4.89,2.81,9.87,3.8,14.94l6.64,0.7c-0.36-1.29-4.69-13.7-5.12-16.02c2.54-0.76,6.09-2.18,6.63-7.31
	c0.6-5.71-3.28-8.8-8.86-9.39l-10.09-1.06c-0.18,4.68-0.96,11.67-1.94,21.01c-0.27,2.61-0.77,8.15-1.29,10.61L158.05,95.54z
	 M160.84,67.68c0.76-0.01,1.39,0.01,1.74,0.05c3.45,0.36,6.52,1.4,6.08,5.61c-0.35,3.32-3.14,4.37-6.42,4.02
	c-1.42-0.15-1.9-0.24-2.38-0.3L160.84,67.68z M185.12,67.44c-1.18,6.4-2.92,12.81-4.49,19.11c-0.42,1.68-2.61,9.9-3.07,11.76
	l17.88,4.46l1.11-4.45c-4.19-0.68-8.35-1.67-12.51-2.61c0.25-1.36,0.56-2.8,0.87-4.05c0.44-1.77,1.02-3.92,1.55-5.67l7.97,2.26
	l1.16-4.67l-8.01-1.72c0.5-2.35,0.72-3.26,0.9-3.99c0.36-1.43,0.91-3.63,1.33-4.95c1.26,0.27,1.84,0.37,2.7,0.58
	c3.02,0.75,6,1.68,8.91,2.91l1.15-4.62L185.12,67.44z M228.61,82.32c-0.81-0.85-2.24-1.82-4.31-2.65c-8.96-3.62-17.34,3.12-20.53,11
	c-3.6,8.92,0.54,16.25,6.15,18.52c4,1.62,8.41-0.25,9.89-1.19l-1.11-2.61c-1.25,0.6-3.67,1.25-5.9,0.35
	c-4.17-1.68-5.81-6.91-2.89-14.13c2.08-5.16,6.48-10.92,11.88-8.74c2.35,0.95,3.76,3.3,4.52,5.09L228.61,82.32z M237.33,86.21
	c-2.99,5.52-3.7,6.76-7.59,13.5c-3.92,6.78-6.14,10.54-8.34,14l5.24,3.03c1.39-2.95,2.98-5.79,4.6-8.6l5.72-3.33
	c-0.8,6.01-1.48,11.02-2.35,16.53l5.7,3.29c0.1-7.65,1.44-15.31,2.31-22.88c4.07-2.43,6.4-3.25,8.02-2.31
	c0.39,0.22,0.8,0.57,0.9,0.67l2.56-4.43c-3.89-2.25-7.58-1.29-18.94,5.82l3.22-5.75c1.05-1.81,2.83-4.64,4.03-6.62L237.33,86.21z
	 M113.18,23.5c-6.58,0.81-10.67,8.04-9.48,17.8c1.2,9.76,6.92,15.79,13.5,14.98c6.58-0.81,10.67-8.04,9.47-17.8
	C125.48,28.72,119.76,22.69,113.18,23.5z M113.66,27.39c3.49-0.43,6.19,3.68,7.19,11.81c1,8.13-0.63,12.77-4.12,13.2
	c-3.49,0.43-6.19-3.68-7.19-11.81C108.54,32.46,110.17,27.82,113.66,27.39z M134.63,22.03c0.13,5.17,0.28,11.98,0.18,17.99
	c-0.08,4.58-0.21,9.21-0.46,13.79l17.58,0.31l0.08-4.63c-2.5,0.31-4.1,0.46-11.71,0.33c-0.08-3.21,0.15-16.11,0.19-18.65
	c0.04-2.18,0.25-6.58,0.38-9.03L134.63,22.03z M160.29,22.74c-0.57,5.4-1.19,10.75-1.85,16.14c-0.63,5.13-1.35,10.28-2.07,15.4
	l8.13,1c9.76,1.2,14.09-5.18,15.2-14.19c1.07-8.75-1.67-15.99-11.01-17.32L160.29,22.74z M173.88,40.25
	c-1.19,9.67-4.26,11.72-9.61,11.06c-0.79-0.1-1.27-0.25-1.62-0.33c0.49-4.02,0.85-8.01,1.34-12.03c0.47-3.84,0.99-7.68,1.59-11.51
	c0.44,0.05,0.81,0.01,1.47,0.09C172.49,28.19,175.01,31.01,173.88,40.25z"/>
<path class="st4" d="M29.86,95.53c2.79,4.66,5.52,9.3,8.24,14c2.58,4.47,5.11,9.03,7.61,13.54l7.09-4.09
	c8.52-4.92,8.14-12.61,3.6-20.48C52,90.87,45.45,86.73,37.19,91.3L29.86,95.53 M51.25,101.32c4.87,8.44,3.65,11.93-1.02,14.62
	c-0.69,0.4-1.16,0.57-1.49,0.71c-2.02-3.51-4.14-6.91-6.17-10.42c-1.94-3.35-3.83-6.73-5.65-10.15c0.39-0.22,0.65-0.48,1.23-0.81
	C42.89,92.53,46.6,93.26,51.25,101.32 M57.68,80.37c0.99,2.2,1.36,2.91,3.99,9.77c1.21,3.16,2.33,6.31,3.54,9.46
	c3.38,8.81,7.29,9.79,13.06,7.57c6.11-2.34,7.94-6.15,5.92-12.28c-0.56-1.6-6.86-18.11-8.01-21.62l-4.57,1.75
	c0.45,0.92,0.65,1.18,1.86,4.34l5.61,14.63c2.46,6.4,1.09,8.31-1.61,9.34c-3.16,1.21-5.09-0.71-6.16-3.5l-5.98-15.58
	c-0.73-2.01-1.52-3.95-2.16-5.99L57.68,80.37z M88.31,69.58c1.01,4.75,1.65,7.57,2.47,11.76c2,10.27,2.62,14.64,3.25,19.5l5.11-0.99
	c-0.03-0.13-0.18-0.69-0.25-1.04c-1.67-7.88-3.34-15.77-4.95-23.61c3.5,6.12,6.73,12.21,9.85,18.49l3.32-0.65
	c0.64-6.97,1.38-13.92,2.08-20.81c1.51,8.23,3.16,16.48,4.59,24.77l5.59-1.09c-1.26-4.38-2.92-13.17-4.04-18.9
	c-1.26-6.47-1.58-8.81-2.12-12.29l-7.73,1.5c-0.3,5.91-0.84,11.77-1.42,17.64c-2.79-5.26-5.49-10.5-8.23-15.77L88.31,69.58z
	 M125.07,63.48c0.15,1.6,0.72,14.14,0.84,17.79c0.16,4.67,0.19,9.3,0.35,13.97l10.19-0.36c4.98-0.17,10.42-2.59,10.19-9.08
	c-0.16-4.54-2.83-7.07-6.93-8.4c3.26-1.05,5.35-3.79,5.23-7.26c-0.17-4.85-3.99-7.08-8.49-7.05L125.07,63.48z M133.08,66.94
	c4.36-0.15,6.1,1.3,6.21,4.24c0.11,3.2-2.06,4.71-6.42,4.86c-0.76,0.03-1.16,0-1.6-0.03c-0.13-1.2-0.28-2.88-0.34-4.53
	c-0.06-1.69-0.03-3.34,0.02-4.46L133.08,66.94z M134.38,80.17c3.46-0.26,6.35,1.96,6.47,5.48c0.12,3.56-1.95,5.41-6.26,5.56
	c-0.8,0.03-2.09,0.07-2.81,0.01l-0.38-10.94L134.38,80.17z M158.05,95.54c0.22-3.38,0.99-10.73,1.37-14.31l3.06,0.23
	c1.41,4.89,2.81,9.87,3.8,14.94l6.64,0.7c-0.36-1.29-4.69-13.7-5.12-16.02c2.54-0.76,6.09-2.18,6.63-7.31
	c0.6-5.71-3.28-8.8-8.86-9.39l-10.09-1.06c-0.18,4.68-0.96,11.67-1.94,21.01c-0.27,2.61-0.77,8.15-1.29,10.61L158.05,95.54z
	 M160.84,67.68c0.76-0.01,1.39,0.01,1.74,0.05c3.45,0.36,6.52,1.4,6.08,5.61c-0.35,3.32-3.14,4.37-6.42,4.02
	c-1.42-0.15-1.9-0.24-2.38-0.3L160.84,67.68z M185.12,67.44c-1.18,6.4-2.92,12.81-4.49,19.11c-0.42,1.68-2.61,9.9-3.07,11.76
	l17.88,4.46l1.11-4.45c-4.19-0.68-8.35-1.67-12.51-2.61c0.25-1.36,0.56-2.8,0.87-4.05c0.44-1.77,1.02-3.92,1.55-5.67l7.97,2.26
	l1.16-4.67l-8.01-1.72c0.5-2.35,0.72-3.26,0.9-3.99c0.36-1.43,0.91-3.63,1.33-4.95c1.26,0.27,1.84,0.37,2.7,0.58
	c3.02,0.75,6,1.68,8.91,2.91l1.15-4.62L185.12,67.44z M228.61,82.32c-0.81-0.85-2.24-1.82-4.31-2.65c-8.96-3.62-17.34,3.12-20.53,11
	c-3.6,8.92,0.54,16.25,6.15,18.52c4,1.62,8.41-0.25,9.89-1.19l-1.11-2.61c-1.25,0.6-3.67,1.25-5.9,0.35
	c-4.17-1.68-5.81-6.91-2.89-14.13c2.08-5.16,6.48-10.92,11.88-8.74c2.35,0.95,3.76,3.3,4.52,5.09L228.61,82.32z M237.33,86.21
	c-2.99,5.52-3.7,6.76-7.59,13.5c-3.92,6.78-6.14,10.54-8.34,14l5.24,3.03c1.39-2.95,2.98-5.79,4.6-8.6l5.72-3.33
	c-0.8,6.01-1.48,11.02-2.35,16.53l5.7,3.29c0.1-7.65,1.44-15.31,2.31-22.88c4.07-2.43,6.4-3.25,8.02-2.31
	c0.39,0.22,0.8,0.57,0.9,0.67l2.56-4.43c-3.89-2.25-7.58-1.29-18.94,5.82l3.22-5.75c1.05-1.81,2.83-4.64,4.03-6.62L237.33,86.21z
	 M113.18,23.5c-6.58,0.81-10.67,8.04-9.48,17.8c1.2,9.76,6.92,15.79,13.5,14.98c6.58-0.81,10.67-8.04,9.47-17.8
	C125.48,28.72,119.76,22.69,113.18,23.5 M113.66,27.39c3.49-0.43,6.19,3.68,7.19,11.81c1,8.13-0.63,12.77-4.12,13.2
	c-3.49,0.43-6.19-3.68-7.19-11.81C108.54,32.46,110.17,27.82,113.66,27.39 M134.63,22.03c0.13,5.17,0.28,11.98,0.18,17.99
	c-0.08,4.58-0.21,9.21-0.46,13.79l17.58,0.31l0.08-4.63c-2.5,0.31-4.1,0.46-11.71,0.33c-0.08-3.21,0.15-16.11,0.19-18.65
	c0.04-2.18,0.25-6.58,0.38-9.03L134.63,22.03z M160.29,22.74c-0.57,5.4-1.19,10.75-1.85,16.14c-0.63,5.13-1.35,10.28-2.07,15.4
	l8.13,1c9.76,1.2,14.09-5.18,15.2-14.19c1.07-8.75-1.67-15.99-11.01-17.32L160.29,22.74z M173.88,40.25
	c-1.19,9.67-4.26,11.72-9.61,11.06c-0.79-0.1-1.27-0.25-1.62-0.33c0.49-4.02,0.85-8.01,1.34-12.03c0.47-3.84,0.99-7.68,1.59-11.51
	c0.44,0.05,0.81,0.01,1.47,0.09C172.49,28.19,175.01,31.01,173.88,40.25"/>
</svg>
