<?xml version="1.0" encoding="utf-8"?>
<!-- Generator: Adobe Illustrator 23.0.2, SVG Export Plug-In . SVG Version: 6.00 Build 0)  -->
<svg version="1.1" id="Layer_1" xmlns="http://www.w3.org/2000/svg" xmlns:xlink="http://www.w3.org/1999/xlink" x="0px" y="0px"
	 viewBox="0 0 283.46 177.66" style="enable-background:new 0 0 283.46 177.66;" xml:space="preserve">
<style type="text/css">
	.st0{fill:#FDB813;}
	.st1{fill:#FFF3CC;}
</style>
<polygon class="st0" points="129.47,115.21 132.71,115.21 131.53,121.11 129.76,122.14 131.53,142.13 119.74,142.13 121.51,122.14 
	119.15,121.11 117.97,115.21 121.51,115.21 121.51,116.75 124.46,116.75 124.46,115.21 126.52,115.21 126.52,116.75 129.47,116.75 
	"/>
<polygon class="st0" points="159.36,115.21 162.6,115.21 161.42,121.11 159.65,122.14 161.42,142.13 149.63,142.13 151.4,122.14 
	149.04,121.11 147.86,115.21 151.4,115.21 151.4,116.75 154.34,116.75 154.34,115.21 156.41,115.21 156.41,116.75 159.36,116.75 "/>
<polygon class="st0" points="142.14,122.91 144.2,122.91 144.2,124.44 147.15,124.44 147.15,122.91 149.55,122.91 147.65,142.12 
	133.59,142.12 131.82,122.91 134.18,122.91 134.18,124.44 137.13,124.44 137.13,122.91 139.19,122.91 139.19,124.44 142.14,124.44 
	"/>
<polygon class="st0" points="144.12,106.4 147.36,106.4 146.18,112.29 144.41,113.32 146.18,121.06 134.39,121.06 136.16,113.32 
	133.8,112.29 132.62,106.4 136.16,106.4 136.16,107.94 139.11,107.94 139.11,106.4 141.17,106.4 141.17,107.94 144.12,107.94 "/>
<rect x="139.31" y="113.49" class="st1" width="2.06" height="5.38"/>
<rect x="139.55" y="126.75" class="st1" width="2.06" height="3.06"/>
<path class="st1" d="M136.32,135.49c0-2.09,1.93-3.78,4.32-3.78h0.04c2.39,0,4.32,1.69,4.32,3.78v5.53h-8.69V135.49"/>
<rect x="124.31" y="122.65" class="st1" width="2.06" height="5.38"/>
<rect x="154.2" y="122.65" class="st1" width="2.06" height="5.38"/>
<rect x="119.45" y="143.61" class="st0" width="42.43" height="1.18"/>
</svg>
