<svg height="512pt" viewBox="0 -4 512 512" width="512pt" xmlns="http://www.w3.org/2000/svg"><path d="m298.667969 503.464844c-2.871094 0-5.546875-1.441406-7.125-3.835938-1.578125-2.394531-1.847657-5.421875-.71875-8.058594l25.601562-59.734374c1.171875-2.84375 3.785157-4.835938 6.839844-5.214844s6.074219.914062 7.90625 3.390625c1.832031 2.472656 2.191406 5.738281.9375 8.550781l-15.207031 35.472656 20.035156-12.015625c2.617188-1.636719 5.910156-1.734375 8.621094-.253906 2.707031 1.480469 4.402344 4.304687 4.441406 7.390625.035156 3.085938-1.597656 5.949219-4.273438 7.488281l-42.664062 25.601563c-1.328125.796875-2.847656 1.21875-4.394531 1.21875zm0 0" fill="#4c8056"/><path d="m298.667969 17.066406v477.867188h-85.335938v-477.867188c.03125-9.414062 7.652344-17.0390622 17.066407-17.066406h51.203124c9.414063.0273438 17.035157 7.652344 17.066407 17.066406zm0 0" fill="#805333"/><path d="m268.375 75.863281c-1.183594.628907-2.503906.953125-3.839844.9375-3.226562.027344-6.179687-1.796875-7.597656-4.695312l-17.066406-34.132813c-.941406-1.8125-1.183594-3.90625-.683594-5.886718l8.023438-32.085938h17.324218c-.003906.691406-.089844 1.378906-.257812 2.046875l-7.765625 31.0625 15.617187 31.316406c1.027344 2.011719 1.210938 4.351563.503906 6.5-.703124 2.148438-2.238281 3.925781-4.257812 4.9375zm0 0" fill="#59474e"/><path d="m264.535156 503.464844c-3.808594 0-7.15625-2.523438-8.203125-6.183594l-17.066406-59.734375c-.351563-1.21875-.425781-2.503906-.210937-3.753906l8.53125-51.199219c.4375-3.066406 2.503906-5.65625 5.394531-6.765625 2.894531-1.105469 6.160156-.5625 8.535156 1.429687 2.375 1.988282 3.484375 5.109376 2.898437 8.148438l-8.21875 49.296875 16.539063 57.882813c1.292969 4.53125-1.328125 9.25-5.855469 10.546874-.761718.222657-1.550781.335938-2.34375.332032zm0 0" fill="#59474e"/><path d="m504.320312 307.796875c.632813 9.402344-6.472656 17.539063-15.871093 18.175781l-445.015625 30.550782c-9.140625.605468-17.144532-6.085938-18.175782-15.191407-.074218-.21875-.101562-.449219-.085937-.679687l-1.277344-18.261719-12.546875-183.894531-1.191406-17.664063-.683594-10.070312c-.332031-4.519531 1.160156-8.984375 4.144532-12.398438 2.980468-3.414062 7.203124-5.496093 11.726562-5.777343l445.011719-30.546876c9.402343-.636718 17.539062 6.46875 18.179687 15.871094l.253906 4.265625 1.367188 19.113281 12.117188 176.726563 1.191406 17.578125zm0 0" fill="#cb8252"/><path d="m273.066406 119.464844c0 9.425781-7.640625 17.070312-17.066406 17.070312s-17.066406-7.644531-17.066406-17.070312c0-9.425782 7.640625-17.066406 17.066406-17.066406s17.066406 7.640624 17.066406 17.066406zm0 0" fill="#95a5a5"/><g fill="#805333"><path d="m64.339844 126.632812-26.707032 17.070313c-1.335937.898437-2.914062 1.371094-4.523437 1.363281-.898437-.007812-1.789063-.152344-2.644531-.425781l-19.117188-6.144531-1.191406-17.664063c1.09375-.027343 2.1875.117188 3.242188.425781l18.515624 5.890626 23.210938-14.851563c2.5625-1.84375 5.933594-2.125 8.761719-.726563 2.832031 1.394532 4.660156 4.242188 4.757812 7.394532.09375 3.15625-1.5625 6.105468-4.304687 7.667968zm0 0"/><path d="m53.078125 162.132812c-3.183594 0-6.101563-1.769531-7.570313-4.589843l-11.664062-22.359375c-1.464844-2.707032-1.355469-5.992188.285156-8.597656 1.636719-2.605469 4.554688-4.128907 7.628906-3.980469 3.074219.144531 5.832032 1.9375 7.214844 4.6875l11.664063 22.363281c1.378906 2.644531 1.277343 5.816406-.269531 8.367188-1.542969 2.550781-4.308594 4.105468-7.289063 4.109374zm0 0"/><path d="m79.53125 306.773438-23.722656 7.851562-24.148438 24.234375c-1.625 1.578125-3.796875 2.464844-6.058594 2.472656h-.34375c-.074218-.21875-.101562-.449219-.085937-.679687l-1.277344-18.261719 21.246094-21.25c.945313-.917969 2.082031-1.617187 3.328125-2.046875l25.601562-8.535156c2.894532-.972656 6.09375-.332032 8.386719 1.691406 2.292969 2.019531 3.332031 5.109375 2.730469 8.105469-.605469 2.996093-2.761719 5.441406-5.65625 6.417969zm0 0"/><path d="m70.398438 332.800781c-2.089844 0-4.109376-.761719-5.671876-2.152343l-19.203124-17.066407c-3.53125-3.132812-3.859376-8.539062-.722657-12.074219 3.132813-3.535156 8.539063-3.859374 12.074219-.726562l19.199219 17.066406c2.679687 2.351563 3.617187 6.117188 2.355469 9.449219-1.265626 3.328125-4.46875 5.523437-8.03125 5.503906zm0 0"/><path d="m503.464844 295.59375c-.976563.015625-1.953125-.101562-2.898438-.339844l-15.875-4.4375-27.21875 15.273438c-1.269531.742187-2.714844 1.128906-4.183594 1.109375-3.867187-.011719-7.246093-2.625-8.226562-6.371094-.980469-3.742187.679688-7.675781 4.046875-9.585937l13.226563-7.421876 14.933593-8.363281 2.21875-1.28125c1.960938-1.144531 4.308594-1.421875 6.484375-.769531l16.300782 4.609375zm0 0"/><path d="m474.15625 295.425781c-3.015625-.003906-5.804688-1.589843-7.339844-4.183593l-13.269531-22.355469c-1.617187-2.625-1.695313-5.921875-.199219-8.617188 1.492188-2.699219 4.328125-4.378906 7.410156-4.398437 3.085938-.015625 5.9375 1.628906 7.464844 4.308594l13.261719 22.359374c1.5625 2.636719 1.59375 5.90625.078125 8.570313s-4.34375 4.3125-7.40625 4.316406zm0 0"/><path d="m490.15625 101.289062-19.117188 16.128907c-.46875.398437-.984374.742187-1.535156 1.023437-.460937.25-.945312.453125-1.449218.597656-.1875.097657-.390626.15625-.597657.171876l-29.953125 8.449218c-.746094.238282-1.523437.351563-2.304687.339844-4.230469-.042969-7.792969-3.175781-8.367188-7.367188-.578125-4.191406 2.003907-8.175781 6.0625-9.359374l13.738281-3.839844 14.765626-4.179688 3.839843-3.242187 18.601563-15.789063c1.40625-1.164062 3.132812-1.878906 4.949218-2.046875zm0 0"/><path d="m465.5 119.464844c-1.84375.003906-3.644531-.59375-5.117188-1.703125l-22.734374-17.070313c-3.769532-2.824218-4.535157-8.175781-1.707032-11.945312 2.828125-3.769532 8.175782-4.535156 11.949219-1.707032l22.730469 17.066407c2.9375 2.203125 4.136718 6.042969 2.976562 9.527343-1.160156 3.484376-4.421875 5.832032-8.097656 5.832032zm0 0"/></g><path d="m213.332031 503.464844c-1.546875 0-3.066406-.421875-4.394531-1.21875l-42.664062-25.601563c-2.675782-1.539062-4.308594-4.402343-4.273438-7.488281.039062-3.085938 1.734375-5.910156 4.441406-7.390625 2.710938-1.480469 6.003906-1.382813 8.621094.253906l20.035156 12.015625-15.207031-35.472656c-1.253906-2.8125-.894531-6.078125.9375-8.550781 1.832031-2.476563 4.851563-3.769531 7.90625-3.390625s5.667969 2.371094 6.839844 5.214844l25.601562 59.734374c1.128907 2.636719.859375 5.664063-.71875 8.058594-1.578125 2.394532-4.253906 3.835938-7.125 3.835938zm0 0" fill="#4c8056"/><path d="m103.152344 286.464844c-4.496094.007812-8.230469-3.46875-8.535156-7.953125l-6.996094-102.160157c-.238282-4.652343 3.292968-8.632812 7.9375-8.953124 4.644531-.316407 8.6875 3.144531 9.085937 7.78125l6.996094 102.164062c.324219 4.699219-3.226563 8.769531-7.925781 9.09375-.175782.019531-.363282.027344-.5625.027344zm0 0" fill="#805333"/><path d="m154.230469 282.964844c-4.496094.011718-8.226563-3.46875-8.53125-7.953125l-7-102.160157c-.238281-4.648437 3.296875-8.632812 7.9375-8.949218 4.644531-.320313 8.6875 3.140625 9.089843 7.78125l6.996094 102.160156c.320313 4.699219-3.226562 8.773438-7.929687 9.097656-.175781.015625-.363281.023438-.5625.023438zm0 0" fill="#805333"/><path d="m99.652344 235.382812c-3.046875.105469-5.921875-1.425781-7.535156-4.015624-1.613282-2.585938-1.726563-5.839844-.289063-8.53125 1.433594-2.691407 4.195313-4.414063 7.242187-4.519532l51.082032-3.5c3.050781-.207031 5.976562 1.226563 7.683594 3.761719 1.703124 2.535156 1.925781 5.789063.582031 8.535156-1.34375 2.742188-4.046875 4.5625-7.097657 4.773438l-51.078124 3.503906zm0 0" fill="#805333"/><path d="m204.144531 279.5c-13.449219-.023438-24.59375-10.433594-25.535156-23.851562l-4.664063-68.101563c-.46875-6.777344 1.773438-13.460937 6.234376-18.585937 4.464843-5.121094 10.777343-8.257813 17.554687-8.722657l17.066406-1.167969c6.777344-.46875 13.464844 1.777344 18.585938 6.238282 5.121093 4.464844 8.257812 10.78125 8.722656 17.5625l4.667969 68.09375c.46875 6.777344-1.777344 13.460937-6.234375 18.582031-4.460938 5.121094-10.773438 8.257813-17.550781 8.726563l-17.066407 1.167968c-.613281.042969-1.203125.058594-1.78125.058594zm12.378907-103.40625h-.597657l-17.023437 1.167969c-2.257813.15625-4.363282 1.199219-5.851563 2.90625-1.488281 1.703125-2.238281 3.933593-2.082031 6.191406l4.667969 68.105469c.136719 2.265625 1.175781 4.382812 2.890625 5.875 1.710937 1.492187 3.949218 2.234375 6.214844 2.058594l17.066406-1.167969c4.699218-.324219 8.246094-4.394531 7.925781-9.097657l-4.667969-68.101562c-.304687-4.484375-4.039062-7.964844-8.53125-7.953125zm0 0" fill="#805333"/><path d="m273.417969 274.773438c-4.496094.011718-8.230469-3.46875-8.535157-7.953126l-6.972656-102.128906c-.234375-3.441406 1.628906-6.6875 4.71875-8.222656 3.089844-1.539062 6.804688-1.058594 9.40625 1.210938l29.949219 26.109374 26.113281-29.957031c2.269532-2.605469 5.882813-3.589843 9.15625-2.488281 3.273438 1.101562 5.5625 4.066406 5.792969 7.511719l7 102.164062c.238281 4.648438-3.292969 8.628907-7.9375 8.949219-4.644531.316406-8.6875-3.144531-9.085937-7.78125l-5.589844-81.605469-18.1875 20.847657c-1.480469 1.710937-3.582032 2.761718-5.839844 2.921874-2.261719.160157-4.488281-.585937-6.199219-2.070312l-20.863281-18.183594 5.597656 81.605469c.15625 2.257813-.59375 4.484375-2.082031 6.191406s-3.59375 2.75-5.855469 2.90625zm0 0" fill="#805333"/><path d="m375.585938 267.792969c-4.492188.011719-8.222657-3.464844-8.53125-7.945313l-6.949219-102.160156c-.320313-4.699219 3.226562-8.773438 7.929687-9.097656l51.046875-3.523438c4.710938-.324218 8.792969 3.234375 9.117188 7.949219.320312 4.710937-3.238281 8.792969-7.949219 9.117187l-42.566406 2.910157 5.828125 85.136719 42.574219-2.910157c3.078124-.269531 6.058593 1.144531 7.796874 3.695313 1.738282 2.554687 1.960938 5.84375.585938 8.609375s-4.136719 4.570312-7.222656 4.71875l-51.070313 3.5zm0 0" fill="#805333"/><path d="m372.054688 216.746094c-4.714844.160156-8.664063-3.535156-8.820313-8.246094-.15625-4.714844 3.535156-8.664062 8.246094-8.820312l42.566406-2.910157c4.710937-.320312 8.792969 3.238281 9.117187 7.949219.324219 4.714844-3.234374 8.796875-7.949218 9.117188l-42.574219 2.917968zm0 0" fill="#805333"/><path d="m503.464844 503.464844h-494.929688c-4.714844 0-8.535156-3.820313-8.535156-8.53125 0-4.714844 3.820312-8.535156 8.535156-8.535156h494.929688c4.714844 0 8.535156 3.820312 8.535156 8.535156 0 4.710937-3.820312 8.53125-8.535156 8.53125zm0 0" fill="#71c285"/></svg>